<svg xmlns="http://www.w3.org/2000/svg" xmlns:xlink="http://www.w3.org/1999/xlink" width="500" zoomAndPan="magnify" viewBox="0 0 375 374.999991" height="500" preserveAspectRatio="xMidYMid meet" version="1.0"><path fill="#000000" d="M 334.933594 76.121094 L 116.285156 76.121094 C 115.527344 76.121094 114.773438 76.195312 114.027344 76.34375 C 113.28125 76.492188 112.554688 76.710938 111.855469 77.003906 C 111.152344 77.292969 110.484375 77.652344 109.851562 78.074219 C 109.21875 78.496094 108.632812 78.976562 108.09375 79.515625 C 107.558594 80.050781 107.078125 80.636719 106.65625 81.269531 C 106.230469 81.902344 105.875 82.570312 105.585938 83.273438 C 105.292969 83.976562 105.074219 84.699219 104.925781 85.445312 C 104.777344 86.191406 104.703125 86.945312 104.703125 87.703125 C 104.703125 88.464844 104.777344 89.21875 104.925781 89.964844 C 105.074219 90.710938 105.292969 91.433594 105.585938 92.136719 C 105.875 92.839844 106.230469 93.507812 106.65625 94.140625 C 107.078125 94.773438 107.558594 95.359375 108.09375 95.894531 C 108.632812 96.433594 109.21875 96.914062 109.851562 97.335938 C 110.484375 97.757812 111.152344 98.117188 111.855469 98.40625 C 112.554688 98.699219 113.28125 98.917969 114.027344 99.066406 C 114.773438 99.214844 115.527344 99.289062 116.285156 99.289062 L 334.933594 99.289062 C 335.464844 99.289062 336 99.320312 336.527344 99.386719 C 337.058594 99.457031 337.582031 99.554688 338.101562 99.691406 C 338.617188 99.824219 339.125 99.992188 339.621094 100.191406 C 340.117188 100.386719 340.597656 100.617188 341.0625 100.878906 C 341.53125 101.136719 341.980469 101.425781 342.410156 101.742188 C 342.839844 102.0625 343.246094 102.402344 343.632812 102.773438 C 344.019531 103.144531 344.382812 103.535156 344.71875 103.949219 C 345.054688 104.367188 345.363281 104.800781 345.644531 105.253906 C 345.925781 105.710938 346.175781 106.179688 346.394531 106.667969 C 346.617188 107.152344 346.804688 107.652344 346.964844 108.164062 C 347.121094 108.671875 347.246094 109.191406 347.335938 109.71875 C 347.425781 110.246094 347.484375 110.773438 347.507812 111.308594 C 347.53125 111.84375 347.519531 112.375 347.476562 112.910156 C 347.433594 113.441406 347.355469 113.96875 347.242188 114.492188 C 347.132812 115.011719 346.988281 115.527344 346.808594 116.03125 C 346.632812 116.535156 346.425781 117.027344 346.183594 117.503906 C 332.945312 144.070312 314.042969 203.339844 304.601562 222.203125 C 304.082031 223.246094 303.425781 224.199219 302.636719 225.0625 C 301.847656 225.925781 300.957031 226.660156 299.964844 227.277344 C 298.96875 227.890625 297.910156 228.355469 296.789062 228.675781 C 295.664062 228.992188 294.519531 229.152344 293.351562 229.152344 L 132.382812 229.152344 C 131.121094 229.152344 129.886719 228.96875 128.679688 228.601562 C 127.472656 228.230469 126.347656 227.691406 125.304688 226.984375 C 124.257812 226.273438 123.34375 225.429688 122.550781 224.445312 C 121.761719 223.460938 121.132812 222.382812 120.667969 221.210938 C 120.667969 221.078125 84.460938 58.648438 84.460938 58.648438 C 84.097656 57 83.660156 55.367188 83.160156 53.753906 C 82.65625 52.144531 82.085938 50.554688 81.449219 48.992188 C 80.8125 47.425781 80.109375 45.890625 79.339844 44.386719 C 78.574219 42.882812 77.746094 41.410156 76.851562 39.976562 C 75.960938 38.542969 75.011719 37.148438 74 35.792969 C 72.992188 34.441406 71.925781 33.128906 70.804688 31.867188 C 69.6875 30.601562 68.515625 29.386719 67.292969 28.222656 C 66.066406 27.058594 64.796875 25.945312 63.480469 24.886719 C 62.164062 23.832031 60.804688 22.832031 59.402344 21.886719 C 58 20.945312 56.5625 20.0625 55.085938 19.242188 C 53.609375 18.421875 52.101562 17.664062 50.5625 16.972656 C 49.019531 16.277344 47.453125 15.652344 45.859375 15.089844 C 44.265625 14.53125 42.652344 14.039062 41.019531 13.613281 C 39.382812 13.1875 37.734375 12.835938 36.066406 12.550781 C 34.402344 12.265625 32.730469 12.050781 31.046875 11.90625 C 29.363281 11.765625 27.675781 11.695312 25.988281 11.691406 L 11.597656 11.691406 C 10.824219 11.65625 10.058594 11.703125 9.296875 11.824219 C 8.535156 11.949219 7.792969 12.152344 7.074219 12.429688 C 6.351562 12.710938 5.667969 13.058594 5.023438 13.480469 C 4.375 13.902344 3.777344 14.386719 3.230469 14.933594 C 2.6875 15.480469 2.203125 16.078125 1.78125 16.726562 C 1.359375 17.371094 1.011719 18.058594 0.734375 18.777344 C 0.453125 19.496094 0.253906 20.238281 0.128906 21 C 0.0078125 21.765625 -0.0351562 22.53125 0 23.300781 C 0 24.0625 0.078125 24.816406 0.226562 25.5625 C 0.375 26.304688 0.597656 27.03125 0.890625 27.730469 C 1.179688 28.433594 1.539062 29.101562 1.960938 29.730469 C 2.382812 30.363281 2.863281 30.949219 3.402344 31.484375 C 3.9375 32.023438 4.523438 32.503906 5.15625 32.925781 C 5.785156 33.347656 6.453125 33.707031 7.15625 33.996094 C 7.855469 34.289062 8.582031 34.507812 9.324219 34.660156 C 10.070312 34.808594 10.824219 34.882812 11.582031 34.886719 L 25.988281 34.886719 C 27.023438 34.886719 28.054688 34.929688 29.085938 35.015625 C 30.117188 35.101562 31.144531 35.234375 32.164062 35.40625 C 33.183594 35.582031 34.195312 35.796875 35.195312 36.054688 C 36.199219 36.316406 37.1875 36.617188 38.164062 36.957031 C 39.140625 37.300781 40.101562 37.683594 41.042969 38.109375 C 41.988281 38.53125 42.914062 38.996094 43.816406 39.496094 C 44.722656 40 45.605469 40.539062 46.464844 41.113281 C 47.324219 41.691406 48.15625 42.304688 48.964844 42.949219 C 49.773438 43.597656 50.550781 44.277344 51.300781 44.988281 C 52.050781 45.703125 52.769531 46.445312 53.457031 47.21875 C 54.144531 47.992188 54.796875 48.792969 55.417969 49.621094 C 56.039062 50.449219 56.621094 51.304688 57.167969 52.183594 C 57.714844 53.058594 58.226562 53.960938 58.699219 54.882812 C 59.167969 55.800781 59.601562 56.742188 59.992188 57.699219 C 60.386719 58.65625 60.738281 59.628906 61.046875 60.617188 C 61.355469 61.605469 61.625 62.601562 61.851562 63.613281 L 98.164062 226.742188 C 98.253906 227.113281 98.363281 227.511719 98.480469 227.882812 C 99.070312 229.648438 99.792969 231.359375 100.652344 233.015625 C 101.507812 234.671875 102.488281 236.25 103.59375 237.75 C 104.695312 239.25 105.910156 240.65625 107.234375 241.96875 C 108.558594 243.28125 109.976562 244.480469 111.488281 245.570312 C 113 246.660156 114.589844 247.625 116.25 248.46875 C 117.914062 249.308594 119.632812 250.015625 121.40625 250.589844 C 123.179688 251.160156 124.984375 251.59375 126.828125 251.882812 C 128.667969 252.171875 130.519531 252.316406 132.382812 252.316406 L 293.351562 252.316406 C 295.003906 252.316406 296.644531 252.203125 298.28125 251.976562 C 299.917969 251.746094 301.53125 251.410156 303.117188 250.957031 C 304.707031 250.503906 306.257812 249.945312 307.769531 249.28125 C 309.28125 248.613281 310.738281 247.847656 312.144531 246.976562 C 313.546875 246.109375 314.886719 245.148438 316.160156 244.09375 C 317.429688 243.039062 318.621094 241.902344 319.738281 240.683594 C 320.851562 239.464844 321.875 238.171875 322.8125 236.8125 C 323.746094 235.449219 324.582031 234.03125 325.320312 232.554688 C 334.746094 213.691406 353.613281 154.449219 366.902344 127.855469 C 367.242188 127.179688 367.558594 126.488281 367.855469 125.792969 C 368.148438 125.09375 368.421875 124.386719 368.671875 123.671875 C 368.921875 122.957031 369.152344 122.234375 369.355469 121.503906 C 369.558594 120.773438 369.742188 120.039062 369.898438 119.296875 C 370.054688 118.558594 370.191406 117.8125 370.300781 117.0625 C 370.410156 116.3125 370.496094 115.558594 370.558594 114.804688 C 370.621094 114.046875 370.660156 113.292969 370.675781 112.535156 C 370.6875 111.777344 370.679688 111.019531 370.644531 110.261719 C 370.609375 109.503906 370.550781 108.75 370.46875 107.996094 C 370.386719 107.242188 370.28125 106.492188 370.152344 105.746094 C 370.023438 105 369.871094 104.257812 369.691406 103.519531 C 369.515625 102.785156 369.316406 102.054688 369.09375 101.328125 C 368.867188 100.605469 368.621094 99.890625 368.355469 99.179688 C 368.085938 98.472656 367.792969 97.773438 367.480469 97.082031 C 367.167969 96.394531 366.832031 95.714844 366.476562 95.042969 C 366.117188 94.375 365.742188 93.71875 365.34375 93.074219 C 364.945312 92.429688 364.527344 91.796875 364.085938 91.179688 C 363.648438 90.5625 363.191406 89.960938 362.714844 89.371094 C 362.238281 88.78125 361.742188 88.207031 361.230469 87.652344 C 360.714844 87.09375 360.183594 86.550781 359.636719 86.027344 C 359.089844 85.503906 358.523438 85 357.945312 84.511719 C 357.363281 84.023438 356.769531 83.554688 356.160156 83.105469 C 355.550781 82.65625 354.925781 82.226562 354.289062 81.816406 C 353.652344 81.402344 353.003906 81.015625 352.339844 80.644531 C 351.679688 80.277344 351.007812 79.929688 350.324219 79.601562 C 349.636719 79.277344 348.945312 78.972656 348.242188 78.691406 C 347.539062 78.40625 346.824219 78.148438 346.105469 77.910156 C 345.386719 77.675781 344.660156 77.460938 343.925781 77.269531 C 343.191406 77.082031 342.453125 76.914062 341.710938 76.769531 C 340.964844 76.625 340.21875 76.507812 339.464844 76.410156 C 338.714844 76.3125 337.960938 76.242188 337.203125 76.195312 C 336.449219 76.144531 335.691406 76.121094 334.933594 76.121094 Z M 334.933594 76.121094 " fill-opacity="1" fill-rule="evenodd"/><path fill="#000000" d="M 144.972656 265.898438 C 143.425781 265.898438 141.878906 265.976562 140.335938 266.128906 C 138.792969 266.28125 137.261719 266.507812 135.742188 266.808594 C 134.21875 267.113281 132.71875 267.488281 131.234375 267.9375 C 129.75 268.386719 128.292969 268.910156 126.863281 269.503906 C 125.429688 270.097656 124.03125 270.757812 122.664062 271.488281 C 121.296875 272.21875 119.96875 273.015625 118.679688 273.875 C 117.390625 274.738281 116.148438 275.660156 114.949219 276.644531 C 113.75 277.628906 112.601562 278.667969 111.507812 279.761719 C 110.410156 280.859375 109.371094 282.007812 108.386719 283.203125 C 107.40625 284.402344 106.480469 285.648438 105.621094 286.933594 C 104.761719 288.222656 103.964844 289.550781 103.234375 290.917969 C 102.503906 292.285156 101.839844 293.6875 101.246094 295.117188 C 100.65625 296.550781 100.132812 298.007812 99.683594 299.492188 C 99.234375 300.972656 98.859375 302.476562 98.554688 303.996094 C 98.253906 305.515625 98.027344 307.046875 97.875 308.589844 C 97.722656 310.132812 97.648438 311.679688 97.648438 313.230469 C 97.648438 314.78125 97.722656 316.328125 97.875 317.867188 C 98.027344 319.410156 98.253906 320.941406 98.558594 322.464844 C 98.859375 323.984375 99.234375 325.484375 99.6875 326.96875 C 100.136719 328.453125 100.65625 329.910156 101.25 331.339844 C 101.84375 332.773438 102.507812 334.171875 103.238281 335.539062 C 103.96875 336.90625 104.765625 338.234375 105.625 339.523438 C 106.488281 340.8125 107.410156 342.054688 108.394531 343.253906 C 109.378906 344.453125 110.417969 345.597656 111.511719 346.695312 C 112.609375 347.789062 113.757812 348.828125 114.957031 349.8125 C 116.152344 350.796875 117.398438 351.71875 118.6875 352.578125 C 119.976562 353.441406 121.304688 354.234375 122.671875 354.964844 C 124.039062 355.695312 125.4375 356.359375 126.871094 356.953125 C 128.300781 357.542969 129.761719 358.066406 131.242188 358.515625 C 132.726562 358.964844 134.230469 359.339844 135.75 359.644531 C 137.269531 359.945312 138.800781 360.171875 140.34375 360.324219 C 141.886719 360.476562 143.433594 360.550781 144.984375 360.550781 C 146.53125 360.550781 148.078125 360.476562 149.621094 360.324219 C 151.164062 360.171875 152.695312 359.941406 154.214844 359.640625 C 155.738281 359.335938 157.238281 358.960938 158.722656 358.511719 C 160.203125 358.058594 161.664062 357.539062 163.09375 356.945312 C 164.527344 356.351562 165.925781 355.6875 167.292969 354.957031 C 168.660156 354.226562 169.988281 353.429688 171.277344 352.570312 C 172.566406 351.707031 173.808594 350.785156 175.007812 349.800781 C 176.203125 348.816406 177.351562 347.777344 178.449219 346.683594 C 179.542969 345.585938 180.582031 344.4375 181.566406 343.238281 C 182.550781 342.042969 183.472656 340.796875 184.332031 339.507812 C 185.191406 338.21875 185.988281 336.890625 186.71875 335.523438 C 187.449219 334.15625 188.109375 332.757812 188.703125 331.324219 C 189.296875 329.894531 189.816406 328.433594 190.265625 326.953125 C 190.714844 325.46875 191.09375 323.964844 191.394531 322.445312 C 191.695312 320.925781 191.921875 319.394531 192.074219 317.851562 C 192.226562 316.308594 192.300781 314.761719 192.300781 313.210938 C 192.300781 311.664062 192.222656 310.117188 192.070312 308.574219 C 191.917969 307.035156 191.6875 305.503906 191.386719 303.984375 C 191.082031 302.464844 190.707031 300.964844 190.253906 299.480469 C 189.804688 298 189.28125 296.542969 188.6875 295.109375 C 188.09375 293.679688 187.433594 292.28125 186.699219 290.914062 C 185.96875 289.546875 185.175781 288.21875 184.3125 286.933594 C 183.453125 285.644531 182.527344 284.402344 181.546875 283.203125 C 180.5625 282.007812 179.523438 280.859375 178.425781 279.765625 C 177.332031 278.667969 176.183594 277.628906 174.988281 276.648438 C 173.789062 275.664062 172.546875 274.742188 171.257812 273.882812 C 169.96875 273.019531 168.640625 272.226562 167.273438 271.496094 C 165.910156 270.765625 164.511719 270.101562 163.078125 269.507812 C 161.648438 268.914062 160.191406 268.394531 158.707031 267.941406 C 157.222656 267.492188 155.722656 267.117188 154.203125 266.8125 C 152.683594 266.511719 151.152344 266.28125 149.613281 266.128906 C 148.070312 265.976562 146.523438 265.902344 144.972656 265.898438 Z M 144.972656 337.386719 C 144.183594 337.386719 143.394531 337.347656 142.605469 337.269531 C 141.820312 337.191406 141.039062 337.074219 140.261719 336.921875 C 139.484375 336.765625 138.71875 336.574219 137.960938 336.34375 C 137.203125 336.113281 136.460938 335.847656 135.730469 335.546875 C 135 335.242188 134.285156 334.90625 133.585938 334.53125 C 132.886719 334.160156 132.210938 333.753906 131.554688 333.3125 C 130.894531 332.875 130.261719 332.402344 129.648438 331.902344 C 129.035156 331.402344 128.453125 330.871094 127.890625 330.308594 C 127.332031 329.75 126.800781 329.164062 126.300781 328.554688 C 125.796875 327.941406 125.328125 327.308594 124.886719 326.648438 C 124.449219 325.992188 124.042969 325.316406 123.667969 324.617188 C 123.296875 323.917969 122.957031 323.203125 122.652344 322.472656 C 122.351562 321.742188 122.085938 321 121.855469 320.242188 C 121.625 319.484375 121.433594 318.71875 121.277344 317.941406 C 121.125 317.167969 121.007812 316.386719 120.929688 315.597656 C 120.851562 314.808594 120.8125 314.019531 120.8125 313.230469 C 120.8125 312.4375 120.851562 311.648438 120.929688 310.863281 C 121.007812 310.074219 121.121094 309.292969 121.277344 308.515625 C 121.429688 307.742188 121.625 306.976562 121.851562 306.21875 C 122.082031 305.460938 122.347656 304.714844 122.652344 303.984375 C 122.953125 303.253906 123.292969 302.539062 123.664062 301.84375 C 124.035156 301.144531 124.441406 300.464844 124.882812 299.808594 C 125.320312 299.152344 125.792969 298.515625 126.292969 297.902344 C 126.796875 297.292969 127.328125 296.707031 127.886719 296.148438 C 128.445312 295.585938 129.03125 295.058594 129.640625 294.554688 C 130.253906 294.050781 130.886719 293.582031 131.546875 293.140625 C 132.203125 292.703125 132.882812 292.296875 133.578125 291.921875 C 134.277344 291.550781 134.992188 291.210938 135.722656 290.910156 C 136.453125 290.605469 137.195312 290.339844 137.953125 290.109375 C 138.710938 289.878906 139.476562 289.6875 140.253906 289.53125 C 141.027344 289.378906 141.808594 289.261719 142.597656 289.183594 C 143.386719 289.105469 144.175781 289.066406 144.964844 289.066406 C 145.757812 289.066406 146.546875 289.105469 147.332031 289.183594 C 148.121094 289.257812 148.902344 289.375 149.679688 289.527344 C 150.453125 289.683594 151.222656 289.875 151.976562 290.105469 C 152.734375 290.332031 153.480469 290.597656 154.210938 290.902344 C 154.941406 291.203125 155.65625 291.542969 156.355469 291.914062 C 157.050781 292.285156 157.730469 292.691406 158.386719 293.132812 C 159.046875 293.570312 159.679688 294.042969 160.292969 294.542969 C 160.90625 295.046875 161.492188 295.574219 162.050781 296.136719 C 162.609375 296.695312 163.140625 297.277344 163.644531 297.890625 C 164.144531 298.5 164.617188 299.136719 165.054688 299.792969 C 165.496094 300.453125 165.902344 301.128906 166.277344 301.828125 C 166.648438 302.523438 166.988281 303.238281 167.289062 303.96875 C 167.59375 304.699219 167.859375 305.445312 168.089844 306.199219 C 168.320312 306.957031 168.511719 307.722656 168.667969 308.5 C 168.824219 309.277344 168.9375 310.058594 169.015625 310.84375 C 169.09375 311.632812 169.132812 312.421875 169.132812 313.210938 C 169.132812 314.003906 169.09375 314.792969 169.015625 315.582031 C 168.9375 316.367188 168.824219 317.148438 168.667969 317.925781 C 168.511719 318.703125 168.320312 319.46875 168.089844 320.226562 C 167.859375 320.984375 167.59375 321.726562 167.292969 322.457031 C 166.988281 323.1875 166.652344 323.902344 166.277344 324.601562 C 165.90625 325.296875 165.5 325.976562 165.058594 326.632812 C 164.621094 327.292969 164.148438 327.925781 163.648438 328.539062 C 163.144531 329.152344 162.613281 329.738281 162.054688 330.296875 C 161.496094 330.855469 160.910156 331.386719 160.296875 331.890625 C 159.6875 332.390625 159.050781 332.863281 158.394531 333.300781 C 157.738281 333.742188 157.058594 334.148438 156.363281 334.523438 C 155.664062 334.894531 154.949219 335.234375 154.21875 335.539062 C 153.488281 335.839844 152.742188 336.109375 151.988281 336.339844 C 151.230469 336.566406 150.464844 336.761719 149.6875 336.914062 C 148.910156 337.070312 148.128906 337.1875 147.34375 337.265625 C 146.554688 337.34375 145.765625 337.382812 144.972656 337.386719 Z M 144.972656 337.386719 " fill-opacity="1" fill-rule="evenodd"/><path fill="#000000" d="M 276.882812 265.898438 C 275.332031 265.898438 273.785156 265.976562 272.242188 266.128906 C 270.699219 266.28125 269.167969 266.507812 267.648438 266.808594 C 266.128906 267.113281 264.625 267.488281 263.144531 267.9375 C 261.660156 268.386719 260.203125 268.910156 258.769531 269.503906 C 257.335938 270.097656 255.9375 270.757812 254.570312 271.488281 C 253.203125 272.21875 251.875 273.015625 250.585938 273.875 C 249.296875 274.738281 248.054688 275.660156 246.855469 276.644531 C 245.65625 277.628906 244.511719 278.667969 243.414062 279.761719 C 242.320312 280.859375 241.277344 282.007812 240.296875 283.203125 C 239.3125 284.402344 238.390625 285.648438 237.527344 286.933594 C 236.667969 288.222656 235.871094 289.550781 235.140625 290.917969 C 234.410156 292.285156 233.75 293.6875 233.15625 295.117188 C 232.5625 296.550781 232.042969 298.007812 231.589844 299.492188 C 231.140625 300.972656 230.765625 302.476562 230.464844 303.996094 C 230.160156 305.515625 229.933594 307.046875 229.78125 308.589844 C 229.628906 310.132812 229.554688 311.679688 229.554688 313.230469 C 229.554688 314.78125 229.628906 316.328125 229.78125 317.867188 C 229.933594 319.410156 230.164062 320.941406 230.464844 322.464844 C 230.765625 323.984375 231.144531 325.484375 231.59375 326.96875 C 232.042969 328.453125 232.566406 329.910156 233.160156 331.339844 C 233.753906 332.773438 234.414062 334.171875 235.144531 335.539062 C 235.875 336.90625 236.671875 338.234375 237.535156 339.523438 C 238.394531 340.8125 239.316406 342.054688 240.300781 343.253906 C 241.285156 344.453125 242.324219 345.597656 243.421875 346.695312 C 244.515625 347.789062 245.664062 348.828125 246.863281 349.8125 C 248.0625 350.796875 249.304688 351.71875 250.59375 352.578125 C 251.882812 353.441406 253.210938 354.234375 254.578125 354.964844 C 255.945312 355.695312 257.34375 356.359375 258.777344 356.953125 C 260.210938 357.542969 261.667969 358.066406 263.152344 358.515625 C 264.632812 358.964844 266.136719 359.339844 267.65625 359.644531 C 269.175781 359.945312 270.707031 360.171875 272.25 360.324219 C 273.792969 360.476562 275.339844 360.550781 276.890625 360.550781 C 278.441406 360.550781 279.988281 360.476562 281.53125 360.324219 C 283.074219 360.171875 284.605469 359.941406 286.125 359.640625 C 287.644531 359.335938 289.144531 358.960938 290.628906 358.511719 C 292.113281 358.058594 293.570312 357.539062 295.003906 356.945312 C 296.433594 356.351562 297.832031 355.6875 299.199219 354.957031 C 300.566406 354.226562 301.894531 353.429688 303.183594 352.570312 C 304.472656 351.707031 305.714844 350.785156 306.914062 349.800781 C 308.113281 348.816406 309.257812 347.777344 310.355469 346.683594 C 311.449219 345.585938 312.492188 344.4375 313.472656 343.238281 C 314.457031 342.042969 315.378906 340.796875 316.238281 339.507812 C 317.101562 338.21875 317.894531 336.890625 318.625 335.523438 C 319.355469 334.15625 320.019531 332.757812 320.609375 331.324219 C 321.203125 329.894531 321.726562 328.433594 322.175781 326.953125 C 322.625 325.46875 323 323.964844 323.300781 322.445312 C 323.605469 320.925781 323.832031 319.394531 323.984375 317.851562 C 324.132812 316.308594 324.210938 314.761719 324.210938 313.210938 C 324.207031 311.664062 324.132812 310.117188 323.980469 308.574219 C 323.828125 307.03125 323.597656 305.503906 323.296875 303.984375 C 322.992188 302.460938 322.617188 300.960938 322.164062 299.480469 C 321.714844 297.996094 321.191406 296.539062 320.597656 295.109375 C 320.003906 293.675781 319.34375 292.277344 318.613281 290.910156 C 317.882812 289.542969 317.085938 288.21875 316.222656 286.929688 C 315.363281 285.640625 314.441406 284.398438 313.457031 283.199219 C 312.472656 282.003906 311.433594 280.855469 310.339844 279.761719 C 309.242188 278.664062 308.097656 277.625 306.898438 276.644531 C 305.699219 275.660156 304.457031 274.738281 303.167969 273.878906 C 301.878906 273.015625 300.550781 272.222656 299.183594 271.492188 C 297.820312 270.761719 296.417969 270.097656 294.988281 269.503906 C 293.554688 268.910156 292.097656 268.390625 290.617188 267.941406 C 289.132812 267.492188 287.632812 267.113281 286.113281 266.8125 C 284.59375 266.507812 283.0625 266.28125 281.519531 266.128906 C 279.976562 265.976562 278.429688 265.902344 276.882812 265.898438 Z M 276.882812 337.386719 C 276.089844 337.386719 275.300781 337.347656 274.515625 337.269531 C 273.726562 337.191406 272.945312 337.074219 272.167969 336.921875 C 271.394531 336.765625 270.625 336.574219 269.871094 336.34375 C 269.113281 336.113281 268.367188 335.847656 267.636719 335.546875 C 266.90625 335.242188 266.191406 334.90625 265.492188 334.53125 C 264.796875 334.160156 264.117188 333.753906 263.460938 333.3125 C 262.800781 332.875 262.167969 332.402344 261.554688 331.902344 C 260.945312 331.402344 260.359375 330.871094 259.800781 330.308594 C 259.238281 329.75 258.710938 329.164062 258.207031 328.554688 C 257.707031 327.941406 257.234375 327.308594 256.792969 326.648438 C 256.355469 325.992188 255.949219 325.316406 255.574219 324.617188 C 255.203125 323.917969 254.863281 323.203125 254.5625 322.472656 C 254.257812 321.742188 253.992188 321 253.761719 320.242188 C 253.535156 319.484375 253.339844 318.71875 253.1875 317.941406 C 253.03125 317.167969 252.917969 316.386719 252.839844 315.597656 C 252.761719 314.808594 252.722656 314.019531 252.722656 313.230469 C 252.722656 312.4375 252.761719 311.648438 252.835938 310.863281 C 252.914062 310.074219 253.03125 309.292969 253.183594 308.515625 C 253.339844 307.742188 253.53125 306.976562 253.761719 306.21875 C 253.988281 305.460938 254.257812 304.714844 254.558594 303.984375 C 254.859375 303.253906 255.199219 302.539062 255.570312 301.84375 C 255.945312 301.144531 256.351562 300.464844 256.789062 299.808594 C 257.230469 299.152344 257.699219 298.515625 258.203125 297.902344 C 258.703125 297.292969 259.234375 296.707031 259.792969 296.148438 C 260.351562 295.585938 260.9375 295.058594 261.550781 294.554688 C 262.160156 294.054688 262.796875 293.582031 263.453125 293.140625 C 264.109375 292.703125 264.789062 292.296875 265.484375 291.921875 C 266.183594 291.550781 266.898438 291.210938 267.628906 290.910156 C 268.359375 290.605469 269.105469 290.339844 269.859375 290.109375 C 270.617188 289.878906 271.382812 289.6875 272.160156 289.53125 C 272.9375 289.378906 273.71875 289.261719 274.503906 289.183594 C 275.292969 289.105469 276.082031 289.066406 276.871094 289.066406 C 277.664062 289.066406 278.453125 289.105469 279.242188 289.183594 C 280.027344 289.257812 280.808594 289.375 281.585938 289.527344 C 282.363281 289.683594 283.128906 289.875 283.886719 290.105469 C 284.644531 290.332031 285.386719 290.597656 286.117188 290.902344 C 286.847656 291.203125 287.5625 291.542969 288.261719 291.914062 C 288.960938 292.289062 289.636719 292.691406 290.296875 293.132812 C 290.953125 293.570312 291.589844 294.042969 292.199219 294.542969 C 292.8125 295.046875 293.398438 295.574219 293.957031 296.136719 C 294.515625 296.695312 295.046875 297.277344 295.550781 297.890625 C 296.054688 298.5 296.523438 299.136719 296.964844 299.792969 C 297.402344 300.453125 297.808594 301.128906 298.183594 301.828125 C 298.558594 302.523438 298.894531 303.238281 299.199219 303.96875 C 299.5 304.699219 299.769531 305.445312 299.996094 306.199219 C 300.226562 306.957031 300.421875 307.722656 300.574219 308.5 C 300.730469 309.277344 300.847656 310.058594 300.925781 310.84375 C 301.003906 311.632812 301.042969 312.421875 301.042969 313.210938 C 301.042969 314.003906 301.003906 314.792969 300.925781 315.582031 C 300.847656 316.367188 300.730469 317.148438 300.574219 317.925781 C 300.421875 318.703125 300.230469 319.46875 300 320.226562 C 299.769531 320.984375 299.503906 321.726562 299.199219 322.457031 C 298.898438 323.1875 298.558594 323.902344 298.1875 324.601562 C 297.8125 325.296875 297.40625 325.976562 296.964844 326.632812 C 296.527344 327.292969 296.054688 327.925781 295.554688 328.539062 C 295.050781 329.152344 294.523438 329.738281 293.960938 330.296875 C 293.402344 330.855469 292.816406 331.386719 292.207031 331.890625 C 291.59375 332.390625 290.960938 332.863281 290.300781 333.300781 C 289.644531 333.742188 288.96875 334.148438 288.269531 334.523438 C 287.570312 334.894531 286.855469 335.234375 286.125 335.539062 C 285.394531 335.839844 284.652344 336.109375 283.894531 336.339844 C 283.136719 336.566406 282.371094 336.761719 281.59375 336.914062 C 280.820312 337.070312 280.039062 337.1875 279.25 337.265625 C 278.460938 337.34375 277.671875 337.382812 276.882812 337.386719 Z M 276.882812 337.386719 " fill-opacity="1" fill-rule="evenodd"/></svg>