<?xml version="1.0" encoding="UTF-8"?>
<svg version="1.1" xmlns="http://www.w3.org/2000/svg" width="521" height="533">
<path d="M0 0 C1.62926951 -0.00533684 3.25853408 -0.01240902 4.88778943 -0.02104706 C9.32706739 -0.03955093 13.76600898 -0.03341205 18.20530021 -0.02289402 C23.00777074 -0.01586687 27.81017459 -0.03192658 32.61262512 -0.04489136 C42.00654571 -0.06647873 51.4003449 -0.06641786 60.79428212 -0.05826581 C68.43397448 -0.05195283 76.07363158 -0.05311474 83.71332359 -0.05953789 C84.80278613 -0.06043954 85.89224868 -0.0613412 87.01472523 -0.06227018 C89.22834134 -0.06412148 91.44195743 -0.06598404 93.65557351 -0.06785773 C114.39100548 -0.0844182 135.12636931 -0.07573227 155.86179718 -0.05887216 C174.80610453 -0.04418037 193.7502532 -0.05879941 212.69454012 -0.08764232 C232.17536649 -0.11707981 251.65611974 -0.12799568 271.13696736 -0.11846012 C273.34312418 -0.11743763 275.54928101 -0.11644302 277.75543785 -0.11547661 C278.84073947 -0.11500022 279.92604109 -0.11452383 281.04423064 -0.114033 C288.66725465 -0.11187443 296.29020898 -0.12164338 303.91321754 -0.13624763 C313.21415941 -0.15381881 322.51489915 -0.15358527 331.81583325 -0.13089598 C336.55525897 -0.11979658 341.29432923 -0.11649298 346.03373909 -0.13519669 C350.38341523 -0.15214051 354.7324297 -0.14546492 359.08206405 -0.1209799 C360.64451902 -0.11614135 362.2070288 -0.11948807 363.76943735 -0.13246734 C386.48207094 -0.30733353 404.56845528 8.06925967 420.99760437 23.6396637 C429.89706723 32.75072218 435.58259045 43.40462964 439.43510437 55.5146637 C439.78023606 56.56383752 440.12536776 57.61301134 440.48095798 58.69397831 C442.16342543 65.57888231 441.72105915 72.77055267 441.70925903 79.81359863 C441.71371444 81.48718348 441.71902948 83.16076621 441.72512776 84.83434588 C441.73928231 89.42390752 441.74097153 94.01340135 441.74053085 98.60298169 C441.74218134 103.5568736 441.75525235 108.51073777 441.76672363 113.46461487 C441.78955647 124.29344924 441.79749266 135.122264 441.80255008 145.95111918 C441.80580962 152.71735026 441.81233373 159.48357567 441.81955147 166.24980354 C441.83911651 184.99638021 441.85552083 203.74295161 441.858428 222.48953915 C441.85861557 223.6887994 441.85880314 224.88805966 441.8589964 226.12366113 C441.85936264 228.55470121 441.85972634 230.98574128 441.86008751 233.41678136 C441.86027032 234.62349903 441.86045313 235.83021671 441.86064148 237.07350159 C441.8609123 238.88579697 441.8609123 238.88579697 441.8611886 240.73470438 C441.86472822 260.30016949 441.89173786 279.86552439 441.92913937 299.43095129 C441.96726242 319.53534316 441.98658578 339.63968041 441.98688751 359.74410921 C441.98747124 371.02513933 441.99590859 382.30603803 442.02488518 393.58703423 C442.04945272 403.19552524 442.05664583 412.80383692 442.04163765 422.41235089 C442.03449031 427.30971319 442.03523186 432.20672178 442.05804825 437.10404396 C442.07878485 441.59826734 442.07590241 446.09186838 442.0551734 450.5860861 C442.05170633 452.20121753 442.05646866 453.81639522 442.07087784 455.4314661 C442.24282123 476.05363109 436.09792494 494.22869764 421.57182312 509.34669495 C420.51414734 510.41983948 420.51414734 510.41983948 419.43510437 511.5146637 C418.60945984 512.44858948 418.60945984 512.44858948 417.76713562 513.40138245 C408.14236643 523.97674613 392.50779041 531.23336181 378.43510437 533.5146637 C376.18822023 533.60689919 373.93888416 533.64550608 371.69011021 533.64888477 C371.02162773 533.651237 370.35314525 533.65358923 369.66440573 533.65601274 C367.4203581 533.66267926 365.17636869 533.66224523 362.93231201 533.66183472 C361.3086774 533.66513481 359.6850436 533.66886069 358.06141084 533.6729762 C353.59611329 533.6829879 349.13082917 533.68671166 344.66552198 533.68936551 C339.85070372 533.69327107 335.03589607 533.70284929 330.22108459 533.71157837 C318.59081714 533.73133657 306.96054882 533.74140858 295.33026877 533.75030616 C289.85150019 533.75469047 284.37273258 533.76005694 278.89396477 533.76529503 C260.67764645 533.78230733 242.46132874 533.79680079 224.2450037 533.80404377 C219.51825014 533.80595362 214.79149658 533.80787396 210.06474304 533.80982971 C208.30255357 533.81055532 208.30255357 533.81055532 206.50476431 533.81129559 C187.48028934 533.81959322 168.45587731 533.84492563 149.43142981 533.87741039 C129.89328825 533.91049988 110.35517864 533.92849428 90.81700891 533.93168801 C79.84959571 533.93385145 68.88227425 533.94257571 57.91488838 533.96814919 C48.57305843 533.98988205 39.2313425 533.99789389 29.88949014 533.9881824 C25.12623006 533.98364511 20.36320515 533.98549071 15.59997749 534.00494385 C11.23169579 534.02262928 6.86381986 534.02153443 2.49553352 534.00604656 C0.922761 534.00367861 -0.65004003 534.00795143 -2.22276913 534.01987521 C-15.18905617 534.11201996 -26.96763769 531.94545295 -38.62739563 525.9521637 C-39.28876526 525.61410706 -39.95013489 525.27605042 -40.63154602 524.92774963 C-55.27359686 517.09289099 -65.36782407 505.17034254 -72.93989563 490.5146637 C-73.42293152 489.59101013 -73.42293152 489.59101013 -73.91572571 488.6486969 C-79.42167468 477.40513822 -80.00122067 465.96508153 -79.94584656 453.70106506 C-79.94930871 452.02046388 -79.954077 450.33986497 -79.96002829 448.65927076 C-79.97249138 444.0690472 -79.96638937 439.47901201 -79.95706964 434.88878798 C-79.95026018 429.92756517 -79.96076976 424.96637394 -79.9690094 420.00515747 C-79.98232872 410.29715438 -79.97947702 400.589221 -79.97077148 390.88121521 C-79.96398825 382.98924509 -79.96308098 375.09729447 -79.96634293 367.20532227 C-79.96680263 366.08084079 -79.96726232 364.95635932 -79.96773595 363.79780266 C-79.96869516 361.51323083 -79.9696678 359.22865902 -79.97065373 356.94408721 C-79.97920235 335.53640556 -79.96938177 314.12876248 -79.95325263 292.72108716 C-79.93984994 274.36401132 -79.94217818 256.00699241 -79.95600891 237.6499176 C-79.97207404 216.31730033 -79.97837842 194.98471684 -79.96917212 173.65209436 C-79.9682165 171.37606462 -79.96727339 169.10003488 -79.96634293 166.82400513 C-79.9658801 165.70424065 -79.96541727 164.58447617 -79.96494042 163.43077943 C-79.96235334 155.55097196 -79.96671546 147.67118598 -79.97378159 139.79138184 C-79.98220714 130.18469953 -79.97989422 120.57809074 -79.96393935 110.97141683 C-79.95607088 106.07271109 -79.95294075 101.1741278 -79.96288681 96.27542305 C-79.97186371 91.78606245 -79.96685173 87.29693713 -79.95095415 82.8075977 C-79.947619 81.18864423 -79.94927173 79.56967066 -79.95658152 77.95073026 C-80.00811822 65.58224859 -78.64134252 54.42794314 -72.81489563 43.3271637 C-72.46781555 42.64935852 -72.12073547 41.97155334 -71.76313782 41.27320862 C-68.91835046 35.86643011 -65.56487288 31.13368505 -61.56489563 26.5146637 C-60.95903625 25.71157776 -60.35317688 24.90849182 -59.72895813 24.08106995 C-44.9498928 6.55427226 -22.04720532 -0.12763927 0 0 Z " fill="#004AAD" transform="translate(79.56489562988281,-0.5146636962890625)"/>
<path d="M0 0 C1.16660156 0.26683594 2.33320313 0.53367187 3.53515625 0.80859375 C28.5295101 7.26522936 50.31781659 20.36946268 69 38 C69.73734375 38.67289063 70.4746875 39.34578125 71.234375 40.0390625 C95.88639241 63.37980239 111.26886485 99.76923404 112.21875 133.49609375 C112.28459399 138.66896216 112.18421341 143.83051125 112 149 C111.9690625 150.02351562 111.938125 151.04703125 111.90625 152.1015625 C109.80416738 186.05019686 93.20144046 216.92430236 70 241 C69.23429688 241.84046875 68.46859375 242.6809375 67.6796875 243.546875 C49.97408209 262.39284143 25.81071779 273.11011821 1.25 279.8125 C0.50645264 280.01963623 -0.23709473 280.22677246 -1.00317383 280.44018555 C-35.45735671 289.38643524 -73.64738739 281.64159066 -103.87841797 263.89746094 C-138.51732692 243.0507241 -161.24158528 211.60959409 -171.61328125 172.69921875 C-172.63495096 168.49555481 -173.39139696 164.28120759 -174 160 C-174.12890625 159.113125 -174.2578125 158.22625 -174.390625 157.3125 C-178.69172792 120.18719055 -168.29151771 82.11166945 -145.32226562 52.63330078 C-141.45809724 47.86016813 -137.25809201 43.41987362 -133 39 C-132.35804688 38.29488281 -131.71609375 37.58976562 -131.0546875 36.86328125 C-114.01040214 18.67533172 -88.10191043 5.45852895 -64 0 C-62.71867187 -0.29777344 -61.43734375 -0.59554687 -60.1171875 -0.90234375 C-40.57580266 -5.00024929 -19.4149261 -4.51646317 0 0 Z " fill="#FEFEFD" transform="translate(292,72)"/>
<path d="M0 0 C2.4183796 2.1233989 4.78216876 4.29820698 7.12695312 6.50244141 C8.94076127 8.19756076 10.75737523 9.77068801 12.70507812 11.30322266 C34.64488951 30.25124158 49.79129641 59.72944141 56.88769531 87.49609375 C57.25618273 88.91327987 57.64384576 90.32566794 58.05371094 91.73144531 C64.94821671 115.5349804 64.24220472 145.96084669 57.45507812 169.67822266 C57.13216797 171.12261719 57.13216797 171.12261719 56.80273438 172.59619141 C47.23252855 213.94198259 17.96240969 249.61672888 -17.36035156 271.81933594 C-28.20857128 278.47658549 -39.61162459 283.31283036 -51.54492188 287.67822266 C-52.6509375 288.08943359 -53.75695312 288.50064453 -54.89648438 288.92431641 C-81.22931097 297.85246474 -111.47579394 298.56861331 -138.54492188 292.67822266 C-139.32689941 292.51193359 -140.10887695 292.34564453 -140.91455078 292.17431641 C-164.76242705 286.9340913 -187.63576456 276.16572293 -206.54492188 260.67822266 C-207.35485596 260.01838379 -207.35485596 260.01838379 -208.18115234 259.34521484 C-219.81618727 249.82776295 -229.60460046 239.74623345 -238.54492188 227.67822266 C-239.19146729 226.80617188 -239.19146729 226.80617188 -239.85107422 225.91650391 C-260.47569241 197.64401998 -269.8836288 164.80515718 -269.91992188 130.17822266 C-269.92200653 129.36629456 -269.92409119 128.55436646 -269.92623901 127.71783447 C-269.91896435 102.69740469 -264.76019599 79.08736769 -253.54492188 56.67822266 C-253.22265625 56.01886719 -252.90039062 55.35951172 -252.56835938 54.68017578 C-246.25625285 41.83786149 -238.40101363 30.38942365 -228.63085938 19.91650391 C-226.68047804 17.82367899 -224.8286082 15.67523724 -222.98242188 13.49072266 C-219.47136981 9.48380447 -215.67210362 6.0406011 -211.54492188 2.67822266 C-210.59746094 1.90478516 -209.65 1.13134766 -208.67382812 0.33447266 C-200.74270857 -6.01240484 -192.42137274 -11.39466154 -183.54492188 -16.32177734 C-182.92278809 -16.66982422 -182.3006543 -17.01787109 -181.65966797 -17.37646484 C-125.47718351 -48.35763274 -49.08752008 -41.99744527 0 0 Z M-205.54492188 28.67822266 C-206.59679687 29.63728516 -206.59679687 29.63728516 -207.66992188 30.61572266 C-231.69005023 53.08616531 -246.50943471 89.19919352 -247.61572266 121.76220703 C-248.64705751 162.14893316 -235.38160713 199.26757296 -207.54492188 228.67822266 C-206.23974609 230.09748047 -206.23974609 230.09748047 -204.90820312 231.54541016 C-183.12347291 254.708729 -149.55585591 271.27233361 -117.54736328 272.82348633 C-74.52962449 273.13347003 -36.07411608 263.48744116 -4.44726562 232.93237305 C20.67168085 208.09219992 37.98155132 174.4762563 39.45507812 138.67822266 C39.48762695 137.97020508 39.52017578 137.2621875 39.55371094 136.53271484 C41.13027218 97.50088056 27.28687406 60.91530458 1.03857422 32.12451172 C-23.0070352 6.2196656 -57.82738435 -11.74932369 -93.43530273 -13.46069336 C-136.64584762 -14.78489272 -174.38509662 -1.72160686 -205.54492188 28.67822266 Z " fill="#2174BB" transform="translate(364.544921875,82.32177734375)"/>
<path d="M0 0 C0.66 0 1.32 0 2 0 C2 19.14 2 38.28 2 58 C-1.815625 60.041875 -5.63125 62.08375 -9.5625 64.1875 C-23.66150191 71.76045887 -37.62859733 79.55934887 -51.47265625 87.58984375 C-52.13168945 87.97092285 -52.79072266 88.35200195 -53.46972656 88.74462891 C-55.16601673 89.72761423 -56.85858061 90.71702243 -58.55078125 91.70703125 C-61 93 -61 93 -63 93 C-63 72.87 -63 52.74 -63 32 C-58.53597656 29.77378906 -54.07195312 27.54757813 -49.47265625 25.25390625 C-46.6515825 23.84592297 -43.83056833 22.43782279 -41.00976562 21.02929688 C-36.52865099 18.79173294 -32.04731779 16.55461429 -27.56469727 14.32006836 C-23.95231398 12.51929399 -20.34090028 10.71658917 -16.73016167 8.91251945 C-15.34975252 8.22324149 -13.96899049 7.53466979 -12.58787727 6.84680367 C-10.65930057 5.88612428 -8.73197351 4.92298206 -6.80493164 3.95922852 C-5.15612755 3.13649193 -5.15612755 3.13649193 -3.47401428 2.2971344 C-1.12045991 1.2197616 -1.12045991 1.2197616 0 0 Z " fill="#FCB713" transform="translate(262,115)"/>
<path d="M0 0 C0.37256195 7.5178736 0.65588393 15.03478217 0.82899475 22.55981255 C0.91215155 26.05590952 1.02457605 29.54565098 1.20703125 33.03808594 C2.34768111 55.46316262 2.34768111 55.46316262 -1.4407959 61.17059326 C-5.0866867 64.62461463 -9.29444041 66.4936335 -13.96459961 68.20965576 C-16.84341424 69.32749703 -19.31176981 70.93210874 -21.890625 72.6171875 C-23.67629174 73.70442617 -25.4627496 74.79036659 -27.25 75.875 C-28.20801514 76.45652832 -29.16603027 77.03805664 -30.15307617 77.63720703 C-32.12233637 78.83168961 -34.09197806 80.0255435 -36.06201172 81.21875 C-38.9931174 82.9958272 -41.92043193 84.77903864 -44.84765625 86.5625 C-46.66906244 87.6670104 -48.49066806 88.771192 -50.3125 89.875 C-51.16038086 90.39304199 -52.00826172 90.91108398 -52.88183594 91.44482422 C-53.65946289 91.9142041 -54.43708984 92.38358398 -55.23828125 92.8671875 C-55.91930908 93.28081543 -56.60033691 93.69444336 -57.30200195 94.12060547 C-59 95 -59 95 -61 95 C-61.20892707 87.28122664 -61.36864028 79.56274766 -61.46630955 71.84178734 C-61.5132002 68.25597355 -61.57673688 64.67209949 -61.67895508 61.08740234 C-61.77706869 57.6248041 -61.83061876 54.16406517 -61.85389519 50.70018387 C-61.87851477 48.74207366 -61.94873008 46.78470795 -62.01966858 44.82772827 C-62.0245863 36.14084492 -62.0245863 36.14084492 -59.15553284 32.94624329 C-56.8375083 31.37193473 -54.54543996 30.16456466 -52 29 C-50.92983643 28.35861084 -49.85967285 27.71722168 -48.75708008 27.05639648 C-47.77118896 26.50024658 -46.78529785 25.94409668 -45.76953125 25.37109375 C-44.64659668 24.73429687 -43.52366211 24.0975 -42.36669922 23.44140625 C-41.18197635 22.7734194 -39.99724307 22.10545101 -38.8125 21.4375 C-36.33061382 20.03243764 -33.85042579 18.62440771 -31.37109375 17.21484375 C-30.75256531 16.86332245 -30.13403687 16.51180115 -29.49676514 16.14962769 C-22.46216747 12.14078626 -15.50791999 7.99619855 -8.57739258 3.81030273 C-7.7345874 3.30571533 -6.89178223 2.80112793 -6.0234375 2.28125 C-5.29044434 1.83845703 -4.55745117 1.39566406 -3.80224609 0.93945312 C-2 0 -2 0 0 0 Z " fill="#FFCD2F" transform="translate(323,213)"/>
<path d="M0 0 C2.20043945 1.32836914 2.20043945 1.32836914 4.61328125 3.03515625 C5.9753772 3.99107666 5.9753772 3.99107666 7.36499023 4.96630859 C8.82400757 6.00392334 8.82400757 6.00392334 10.3125 7.0625 C12.37209239 8.51475335 14.43199799 9.9665626 16.4921875 11.41796875 C17.55663086 12.16997559 18.62107422 12.92198242 19.71777344 13.69677734 C23.00344486 16.00994793 26.31558037 18.28320284 29.6328125 20.55078125 C30.68944092 21.27579834 31.74606934 22.00081543 32.8347168 22.74780273 C34.88248119 24.15170321 36.93337097 25.55105713 38.98754883 26.94555664 C39.90818115 27.57969482 40.82881348 28.21383301 41.77734375 28.8671875 C42.59452881 29.42519043 43.41171387 29.98319336 44.25366211 30.55810547 C44.82995361 31.03393066 45.40624512 31.50975586 46 32 C46 32.66 46 33.32 46 34 C43.91479492 35.50537109 43.91479492 35.50537109 40.98046875 37.2734375 C39.90361816 37.92844238 38.82676758 38.58344727 37.71728516 39.25830078 C36.54090594 39.96422699 35.36430635 40.66978608 34.1875 41.375 C31.8016449 42.81484048 29.41817688 44.25859922 27.03515625 45.703125 C26.43773621 46.06435455 25.84031616 46.42558411 25.22479248 46.79776001 C21.49619311 49.06111222 17.82456667 51.39382011 14.18359375 53.796875 C13.32161377 54.36229004 12.45963379 54.92770508 11.5715332 55.51025391 C9.96930427 56.56774739 8.37498488 57.63734697 6.78979492 58.72021484 C6.07799072 59.18637207 5.36618652 59.6525293 4.6328125 60.1328125 C4.02324707 60.54418457 3.41368164 60.95555664 2.78564453 61.37939453 C1 62 1 62 -0.98901367 61.28515625 C-2.98035607 60.0125538 -4.90815312 58.70978655 -6.80859375 57.3046875 C-7.5456958 56.76118652 -8.28279785 56.21768555 -9.04223633 55.65771484 C-9.83267334 55.06941895 -10.62311035 54.48112305 -11.4375 53.875 C-12.26209717 53.26479004 -13.08669434 52.65458008 -13.9362793 52.02587891 C-21.33526319 46.5333774 -28.66520317 40.95050091 -35.96850586 35.33154297 C-39.45184089 32.65921986 -42.89647193 30.01674391 -46.60546875 27.6640625 C-47.39566406 27.11492187 -48.18585938 26.56578125 -49 26 C-49 25.34 -49 24.68 -49 24 C-47.576875 23.26910156 -47.576875 23.26910156 -46.125 22.5234375 C-35.90793221 17.22006769 -25.94216472 11.54374695 -16.02539062 5.69873047 C-15.04119141 5.11881348 -14.05699219 4.53889648 -13.04296875 3.94140625 C-11.72848755 3.16325562 -11.72848755 3.16325562 -10.38745117 2.36938477 C-9.20566284 1.69153931 -9.20566284 1.69153931 -8 1 C-7.31848877 0.5887085 -6.63697754 0.17741699 -5.93481445 -0.24633789 C-3.44611447 -1.21575327 -2.46615353 -0.98569342 0 0 Z " fill="#FFCD30" transform="translate(320,145)"/>
<path d="M0 0 C2.24731445 1.13232422 2.24731445 1.13232422 4.36328125 2.5546875 C5.15903564 3.08151123 5.95479004 3.60833496 6.7746582 4.15112305 C7.612146 4.72000244 8.44963379 5.28888184 9.3125 5.875 C11.10395154 7.0667297 12.89562182 8.25813064 14.6875 9.44921875 C15.58082031 10.04782715 16.47414062 10.64643555 17.39453125 11.26318359 C21.1726157 13.78167055 24.99200097 16.23407054 28.8125 18.6875 C36.59632095 23.71018068 44.30784847 28.8383088 52 34 C48.67718434 36.74029273 45.30940281 39.15933037 41.6484375 41.42578125 C40.63136719 42.05806641 39.61429687 42.69035156 38.56640625 43.34179688 C37.51324219 43.99212891 36.46007812 44.64246094 35.375 45.3125 C33.29919883 46.59980848 31.22367657 47.88756681 29.1484375 49.17578125 C28.1284668 49.80178223 27.10849609 50.4277832 26.05761719 51.07275391 C23.99297357 52.37411902 21.95697334 53.7219027 19.95019531 55.11083984 C18.98952148 55.76906738 18.02884766 56.42729492 17.0390625 57.10546875 C16.18779785 57.7089917 15.3365332 58.31251465 14.45947266 58.93432617 C12 60 12 60 9.44946289 59.35595703 C7.12147631 58.06724603 4.9412908 56.73599024 2.76953125 55.19921875 C1.97554932 54.64065186 1.18156738 54.08208496 0.36352539 53.5065918 C-0.47831299 52.9062915 -1.32015137 52.30599121 -2.1875 51.6875 C-3.06736572 51.06593018 -3.94723145 50.44436035 -4.85375977 49.80395508 C-11.48931593 45.10572681 -18.08648336 40.35387411 -24.66040039 35.56982422 C-28.0804945 33.08520948 -31.51297722 30.6307514 -35.01171875 28.2578125 C-35.62539307 27.84120361 -36.23906738 27.42459473 -36.87133789 26.99536133 C-38.50615444 25.89266243 -40.14736963 24.79946638 -41.7890625 23.70703125 C-42.51867187 23.14371094 -43.24828125 22.58039063 -44 22 C-44 21.34 -44 20.68 -44 20 C-42.91283691 19.41883423 -42.91283691 19.41883423 -41.80371094 18.82592773 C-39.05177475 17.35342736 -36.30094141 15.8788906 -33.55078125 14.40307617 C-31.80029162 13.46446629 -30.04860055 12.52809814 -28.296875 11.59179688 C-27.1625 10.98271484 -26.028125 10.37363281 -24.859375 9.74609375 C-23.71919922 9.13491699 -22.57902344 8.52374023 -21.40429688 7.89404297 C-17.07390863 5.48475209 -12.88996319 2.86019952 -8.72753906 0.17211914 C-5.29138745 -1.30451565 -3.56176671 -1.02846645 0 0 Z " fill="#FFCD30" transform="translate(199,214)"/>
<path d="M0 0 C2.05286737 1.42921146 3.99048826 2.87673044 5.9375 4.4375 C7.10016337 5.35038403 8.26292662 6.26314086 9.42578125 7.17578125 C10.31450928 7.87888428 10.31450928 7.87888428 11.22119141 8.59619141 C14.00597447 10.7938997 16.81429132 12.96061078 19.625 15.125 C20.15625488 15.53613037 20.68750977 15.94726074 21.23486328 16.37084961 C25.74980773 19.84988278 30.3731774 23.14994375 35.05078125 26.40625 C35.69402344 26.9321875 36.33726562 27.458125 37 28 C37 28.66 37 29.32 37 30 C34.9465332 31.48950195 34.9465332 31.48950195 32.05078125 33.23828125 C30.98424316 33.88788818 29.91770508 34.53749512 28.81884766 35.20678711 C27.65017906 35.90888113 26.48139398 36.61078129 25.3125 37.3125 C24.13026451 38.02866542 22.94846383 38.7455491 21.76708984 39.46313477 C19.96015024 40.56060709 18.1529119 41.65754535 16.34399414 42.75175476 C12.45436955 45.10635745 8.58881044 47.49578391 4.73828125 49.9140625 C3.78719482 50.51049561 2.8361084 51.10692871 1.85620117 51.72143555 C0.06898773 52.84437496 -1.71609814 53.97070942 -3.4987793 55.10083008 C-4.300979 55.60251709 -5.10317871 56.1042041 -5.9296875 56.62109375 C-6.62304199 57.0586499 -7.31639648 57.49620605 -8.03076172 57.94702148 C-10.11613958 59.06210141 -11.63993862 59.77083712 -14 60 C-16.00439453 59.03466797 -16.00439453 59.03466797 -18.1328125 57.4921875 C-18.93082275 56.92338867 -19.72883301 56.35458984 -20.55102539 55.76855469 C-21.40043701 55.14368164 -22.24984863 54.51880859 -23.125 53.875 C-24.00212646 53.2449707 -24.87925293 52.61494141 -25.78295898 51.96582031 C-28.5304774 49.98869176 -31.26530317 47.99481185 -34 46 C-35.73734014 44.74609085 -37.47559163 43.49344326 -39.21484375 42.2421875 C-42.92568521 39.57128977 -46.62861757 36.88985056 -50.32446289 34.19824219 C-51.86037508 33.09985124 -53.42888084 32.04741277 -55 31 C-55 30.34 -55 29.68 -55 29 C-52.42702218 27.4382623 -49.84408538 25.90093258 -47.25 24.375 C-46.52039063 23.92898437 -45.79078125 23.48296875 -45.0390625 23.0234375 C-44.33007812 22.6109375 -43.62109375 22.1984375 -42.890625 21.7734375 C-41.91657715 21.19215088 -41.91657715 21.19215088 -40.92285156 20.59912109 C-39 20 -39 20 -36.96386719 20.7331543 C-35.12639568 21.91846504 -33.39585353 23.13201015 -31.6875 24.49609375 C-31.08679688 24.97240234 -30.48609375 25.44871094 -29.8671875 25.93945312 C-29.25101563 26.43380859 -28.63484375 26.92816406 -28 27.4375 C-26.77111733 28.41572146 -25.541958 29.39359549 -24.3125 30.37109375 C-23.77238281 30.80349365 -23.23226562 31.23589355 -22.67578125 31.68139648 C-20.80654139 33.15222464 -18.90736685 34.57908442 -17 36 C-17.06807861 35.16339844 -17.13615723 34.32679688 -17.20629883 33.46484375 C-18.85124766 10.32344097 -18.85124766 10.32344097 -15.78857422 4.82519531 C-11.8556938 0.8288211 -5.46205361 -2.55041782 0 0 Z " fill="#2375BB" transform="translate(271,180)"/>
<path d="M0 0 C3.96500171 -0.12487892 7.92922091 -0.21492849 11.89575195 -0.2746582 C13.89770801 -0.31176249 15.89911742 -0.37534137 17.90039062 -0.43945312 C25.75097951 -0.53832704 31.7799726 -0.11929221 38 5 C41.99144539 9.28632031 43.32151076 13.00841823 43.5625 18.875 C43.23209131 26.13481309 41.30233372 32.12208285 36.75 37.8125 C29.88862047 43.27041553 24.58435296 46.16459551 15.70703125 46.09765625 C14.64798836 46.09553383 14.64798836 46.09553383 13.56755066 46.09336853 C11.31582374 46.08777764 9.06419679 46.07522688 6.8125 46.0625 C5.28450665 46.05748382 3.75651173 46.05292112 2.22851562 46.04882812 C-1.51436135 46.0378112 -5.25716373 46.02055287 -9 46 C-7.71562798 37.06548609 -6.1321901 28.21204054 -4.34057617 19.36669922 C-3.93099457 17.34285506 -3.5267412 15.31799464 -3.12304688 13.29296875 C-1.13384956 3.40154867 -1.13384956 3.40154867 0 0 Z " fill="#F9FAFC" transform="translate(402,436)"/>
<path d="M0 0 C4.54144994 -0.11647041 9.08251394 -0.18734502 13.625 -0.25 C15.55279297 -0.30027344 15.55279297 -0.30027344 17.51953125 -0.3515625 C29.41563777 -0.47483822 29.41563777 -0.47483822 34 4 C37.24918586 7.25605518 37.43222232 9.84674639 37.4375 14.375 C37.30516945 19.7464174 36.81649808 22.97720473 33 27 C30.72772946 29.00176215 28.70333897 30.64833052 26 32 C27.03001479 35.51921721 28.26556594 38.60478707 30.125 41.75 C32 45 32 45 32 47 C28.11213733 47.75929325 24.85004625 48.04250582 21 47 C17.73608091 43.29049469 14 38.1270674 14 33 C10.7 33 7.4 33 4 33 C3.855625 34.4025 3.71125 35.805 3.5625 37.25 C3.24713331 40.31356217 2.75429058 42.98283767 2 46 C-1.63 46 -5.26 46 -9 46 C-8.38382015 37.44194659 -6.74894707 29.20903864 -4.98876953 20.82910156 C-4.49547705 18.47844706 -4.01085868 16.12612066 -3.52734375 13.7734375 C-3.21664749 12.2759375 -2.9054675 10.77853776 -2.59375 9.28125 C-2.44893188 8.57923462 -2.30411377 7.87721924 -2.15490723 7.15393066 C-1.11592854 2.23185709 -1.11592854 2.23185709 0 0 Z " fill="#F7F9FC" transform="translate(180,436)"/>
<path d="M0 0 C11.55 0 23.1 0 35 0 C34.67 2.64 34.34 5.28 34 8 C25.75 8 17.5 8 9 8 C8.67 11.3 8.34 14.6 8 18 C14.93 18 21.86 18 29 18 C28.67 20.97 28.34 23.94 28 27 C20.41 27 12.82 27 5 27 C4.67 29.97 4.34 32.94 4 36 C3.67 36.66 3.34 37.32 3 38 C11.58 38 20.16 38 29 38 C28 46 28 46 27 47 C24.3337397 47.08855161 21.69352886 47.11524673 19.02734375 47.09765625 C18.22970108 47.0962413 17.43205841 47.09482635 16.61024475 47.09336853 C14.05262565 47.08775316 11.49509282 47.07519812 8.9375 47.0625 C7.20768355 47.05748698 5.47786574 47.05292373 3.74804688 47.04882812 C-0.50133553 47.03777875 -4.75065312 47.02050386 -9 47 C-8.40637866 41.10939408 -7.58945082 35.36890161 -6.40625 29.5703125 C-6.25466431 28.81330048 -6.10307861 28.05628845 -5.94689941 27.27633667 C-5.62935422 25.69459786 -5.30996128 24.11322893 -4.98876953 22.53222656 C-4.49713864 20.11090758 -4.01179875 17.68838888 -3.52734375 15.265625 C-3.21651068 13.72128069 -2.90532547 12.1770072 -2.59375 10.6328125 C-2.44893188 9.91094757 -2.30411377 9.18908264 -2.15490723 8.44534302 C-1.56681895 5.55973736 -0.93242246 2.79726737 0 0 Z " fill="#F5F8FB" transform="translate(357,436)"/>
<path d="M0 0 C11.55 0 23.1 0 35 0 C34.67 2.64 34.34 5.28 34 8 C25.75 8 17.5 8 9 8 C8.67 10.97 8.34 13.94 8 17 C14.93 17.33 21.86 17.66 29 18 C28 26 28 26 27 27 C25.36527118 27.08700342 23.72685945 27.10701063 22.08984375 27.09765625 C21.10048828 27.09443359 20.11113281 27.09121094 19.09179688 27.08789062 C18.05087891 27.07951172 17.00996094 27.07113281 15.9375 27.0625 C14.89271484 27.05798828 13.84792969 27.05347656 12.77148438 27.04882812 C10.18096546 27.03699927 7.59047578 27.01906319 5 27 C4.34 30.63 3.68 34.26 3 38 C11.25 38 19.5 38 28 38 C27.67 40.64 27.34 43.28 27 46 C15.12 46 3.24 46 -9 46 C-8.33992858 40.0593572 -7.58990574 34.36161518 -6.40625 28.53515625 C-6.25466431 27.77577255 -6.10307861 27.01638885 -5.94689941 26.23399353 C-5.62938252 24.64805386 -5.30998965 23.06248868 -4.98876953 21.47729492 C-4.49648043 19.04511138 -4.0115165 16.61154522 -3.52734375 14.17773438 C-3.2165754 12.63012201 -2.90539264 11.08259279 -2.59375 9.53515625 C-2.44893188 8.80813004 -2.30411377 8.08110382 -2.15490723 7.33204651 C-1.11537783 2.23075565 -1.11537783 2.23075565 0 0 Z " fill="#F9FAFC" transform="translate(135,436)"/>
<path d="M0 0 C1.78690194 1.76369542 2.13207748 3.03344732 2.50390625 5.484375 C0.52390625 7.134375 -1.45609375 8.784375 -3.49609375 10.484375 C-4.05296875 10.195625 -4.60984375 9.906875 -5.18359375 9.609375 C-5.94671875 9.238125 -6.70984375 8.866875 -7.49609375 8.484375 C-8.21796875 8.113125 -8.93984375 7.741875 -9.68359375 7.359375 C-15.08907377 5.67767011 -19.72828304 5.58379218 -24.80859375 8.171875 C-28.41034472 11.27105607 -30.98204987 13.94224337 -32.49609375 18.484375 C-32.8627111 24.07528956 -32.70571534 27.66994261 -29.49609375 32.484375 C-24.91238199 35.43248917 -19.75005448 35.14683092 -14.49609375 34.484375 C-12.19851986 33.38172408 -10.52634247 32.05781776 -8.49609375 30.484375 C-4.49613089 31.81769595 -3.65827038 33.9801577 -1.49609375 37.484375 C-8.92707023 44.05128445 -14.85370491 44.9597168 -24.6015625 44.7265625 C-31.13266606 44.32041564 -35.35017869 43.05008931 -39.87109375 38.109375 C-44.29330528 32.69895977 -45.00528665 27.44425143 -44.87109375 20.6171875 C-43.97584779 13.13815351 -39.94660871 6.94693967 -34.4140625 1.95703125 C-24.72207468 -5.48467834 -10.49593047 -6.45290602 0 0 Z " fill="#F7F9FC" transform="translate(122.49609375,438.515625)"/>
<path d="M0 0 C0 16.5 0 33 0 50 C-10.11994003 43.25337331 -10.11994003 43.25337331 -13.7890625 40.52734375 C-14.58570313 39.93759766 -15.38234375 39.34785156 -16.203125 38.74023438 C-17.00234375 38.14533203 -17.8015625 37.55042969 -18.625 36.9375 C-20.24182626 35.73779425 -21.85900788 34.53856726 -23.4765625 33.33984375 C-24.2387207 32.77249512 -25.00087891 32.20514648 -25.78613281 31.62060547 C-27.86007485 30.10242866 -29.96670667 28.64524761 -32.0859375 27.19140625 C-33.52839844 26.10666016 -33.52839844 26.10666016 -35 25 C-35 24.34 -35 23.68 -35 23 C-33.05958812 21.50440142 -31.1254149 20.13829995 -29.0859375 18.7890625 C-28.47867828 18.37965424 -27.87141907 17.97024597 -27.24575806 17.5484314 C-25.29309129 16.2341575 -23.33418956 14.92952534 -21.375 13.625 C-20.07640354 12.75322854 -18.77822114 11.88083997 -17.48046875 11.0078125 C-13.99231935 8.66380238 -10.49731332 6.33031675 -7 4 C-6.43355774 3.61463074 -5.86711548 3.22926147 -5.2835083 2.83221436 C-1.1053742 0 -1.1053742 0 0 0 Z " fill="#FCB713" transform="translate(254,254)"/>
<path d="M0 0 C11.55 0 23.1 0 35 0 C35 6 35 6 34 8 C26.08 8.33 18.16 8.66 10 9 C9.01 12.96 8.02 16.92 7 21 C13.93 21 20.86 21 28 21 C28 27 28 27 27 29 C19.74 29 12.48 29 5 29 C4.690625 31.0625 4.38125 33.125 4.0625 35.25 C3.51350804 38.90994643 2.89854168 42.40583327 2 46 C-1.63 46 -5.26 46 -9 46 C-6.20126452 30.61842508 -3.30095098 15.28218049 0 0 Z " fill="#FBFCFD" transform="translate(292,436)"/>
<path d="M0 0 C13.53 0 27.06 0 41 0 C40.67 2.64 40.34 5.28 40 8 C35.05 8.33 30.1 8.66 25 9 C22.69 21.21 20.38 33.42 18 46 C14.37 46 10.74 46 7 46 C7.58379643 37.98606717 8.79622509 30.34710045 10.5 22.5 C10.83837891 20.89511719 10.83837891 20.89511719 11.18359375 19.2578125 C12.83743467 11.48769599 12.83743467 11.48769599 14 8 C9.05 8 4.1 8 -1 8 C-0.67 5.36 -0.34 2.72 0 0 Z " fill="#F9FBFD" transform="translate(223,436)"/>
<path d="M0 0 C8.11758644 -0.4454773 14.09737858 -0.5583349 21 4 C23.84807871 8.27211807 23.49332986 11.9883951 23 17 C20.9968775 22.89808292 17.37221906 25.76214296 12.29296875 29.1328125 C8.97636098 30.38713435 5.74046745 30.21077708 2.25 30.125 C1.55261719 30.11597656 0.85523438 30.10695313 0.13671875 30.09765625 C-1.57566958 30.07419888 -3.28788004 30.03833104 -5 30 C-4.43617776 23.00634512 -3.37639601 16.23899157 -1.9375 9.375 C-1.75123047 8.46621094 -1.56496094 7.55742187 -1.37304688 6.62109375 C-0.91982704 4.4130997 -0.46210307 2.20614876 0 0 Z " fill="#084EAF" transform="translate(411,444)"/>
<path d="M0 0 C3.63 0 7.26 0 11 0 C9.51140298 10.36755199 7.52355295 20.56563864 5.375 30.8125 C5.04656814 32.39121223 4.71844126 33.96998795 4.390625 35.54882812 C3.5972536 39.36662419 2.7997965 43.183545 2 47 C-1.63 47 -5.26 47 -9 47 C-7.82533543 37.29401882 -6.29900808 27.73770443 -4.34057617 18.16088867 C-3.92866461 16.14424351 -3.52540611 14.12599258 -3.12304688 12.10742188 C-1.13623996 2.27247992 -1.13623996 2.27247992 0 0 Z " fill="#F2F6FA" transform="translate(270,436)"/>
<path d="M0 0 C3.63 0 7.26 0 11 0 C8.03 15.18 5.06 30.36 2 46 C-1.63 46 -5.26 46 -9 46 C-7.71562798 37.06548609 -6.1321901 28.21204054 -4.34057617 19.36669922 C-3.93099457 17.34285506 -3.5267412 15.31799464 -3.12304688 13.29296875 C-1.13384956 3.40154867 -1.13384956 3.40154867 0 0 Z " fill="#FAFBFD" transform="translate(335,436)"/>
<path d="M0 0 C5.12667824 3.7193548 10.1005318 7.61269483 15 11.625 C15.5880542 12.09204346 16.1761084 12.55908691 16.78198242 13.0402832 C18.4375 14.4140625 18.4375 14.4140625 21 17 C21 18.32 21 19.64 21 21 C19.48706055 22.38793945 19.48706055 22.38793945 17.38671875 23.61328125 C16.63326172 24.05607422 15.87980469 24.49886719 15.10351562 24.95507812 C14.30623047 25.40302734 13.50894531 25.85097656 12.6875 26.3125 C11.90181641 26.77978516 11.11613281 27.24707031 10.30664062 27.72851562 C5.94302039 30.24270362 5.94302039 30.24270362 4 31 C3.01 30.67 2.02 30.34 1 30 C0.0232751 19.97112823 -0.10849626 10.06604235 0 0 Z " fill="#054360" transform="translate(255,188)"/>
<path d="M0 0 C1.89510699 -0.08160748 3.79124504 -0.13946459 5.6875 -0.1875 C6.74324219 -0.22230469 7.79898438 -0.25710938 8.88671875 -0.29296875 C12.44005964 0.04141088 14.24973915 0.73566866 17 3 C17.95819611 6.06059111 17.71420025 8.8901359 17 12 C14.40798407 14.80217939 12.60113499 15.79962167 9 17 C6.93854893 17.068991 4.87498599 17.08467727 2.8125 17.0625 C1.18248047 17.04896484 1.18248047 17.04896484 -0.48046875 17.03515625 C-1.31191406 17.02355469 -2.14335937 17.01195312 -3 17 C-2.68985608 14.91631462 -2.3767948 12.83306332 -2.0625 10.75 C-1.88847656 9.58984375 -1.71445313 8.4296875 -1.53515625 7.234375 C-1.1272264 4.76893039 -0.66098697 2.40575438 0 0 Z " fill="#0C50AF" transform="translate(189,444)"/>
<path d="M0 0 C7.26 0 14.52 0 22 0 C22 0.33 22 0.66 22 1 C21.16021606 1.029729 21.16021606 1.029729 20.3034668 1.06005859 C17.76434146 1.15537783 15.22603112 1.26502753 12.6875 1.375 C11.36588867 1.42140625 11.36588867 1.42140625 10.01757812 1.46875 C9.17001953 1.50742187 8.32246094 1.54609375 7.44921875 1.5859375 C6.66893311 1.6173584 5.88864746 1.6487793 5.0847168 1.68115234 C2.69844232 1.89587889 2.69844232 1.89587889 0 4 C0 2.68 0 1.36 0 0 Z " fill="#1256B1" transform="translate(362,463)"/>
<path d="M0 0 C-0.33 1.65 -0.66 3.3 -1 5 C-1.66 4.67 -2.32 4.34 -3 4 C-3.33 7.3 -3.66 10.6 -4 14 C-4.33 14 -4.66 14 -5 14 C-5.08082094 12.04233719 -5.13910778 10.08373272 -5.1875 8.125 C-5.22230469 7.03445312 -5.25710937 5.94390625 -5.29296875 4.8203125 C-5.19628906 3.88960937 -5.09960938 2.95890625 -5 2 C-2 0 -2 0 0 0 Z " fill="#5189B3" transform="translate(259,185)"/>
<path d="M0 0 C3 1 3 1 3 1 Z " fill="#0049AC" transform="translate(463,532)"/>
<path d="M0 0 C3 1 3 1 3 1 Z " fill="#004AAC" transform="translate(55,532)"/>
<path d="" fill="#004AAC" transform="translate(0,0)"/>
<path d="" fill="#0049AC" transform="translate(0,0)"/>
<path d="" fill="#004AAC" transform="translate(0,0)"/>
<path d="" fill="#0049AD" transform="translate(0,0)"/>
<path d="M0 0 C3 1 3 1 3 1 Z " fill="#004AAD" transform="translate(466,1)"/>
<path d="M0 0 C3 1 3 1 3 1 Z " fill="#0049AD" transform="translate(463,0)"/>
<path d="M0 0 C3 1 3 1 3 1 Z " fill="#004AAD" transform="translate(55,0)"/>
<path d="M0 0 C2 1 2 1 2 1 Z " fill="#004AAD" transform="translate(467,531)"/>
<path d="M0 0 C2 1 2 1 2 1 Z " fill="#004AAD" transform="translate(52,531)"/>
<path d="M0 0 C2 1 2 1 2 1 Z " fill="#004AAC" transform="translate(470,530)"/>
<path d="M0 0 C2 1 2 1 2 1 Z " fill="#0049AC" transform="translate(49,530)"/>
<path d="M0 0 C2 1 2 1 2 1 Z " fill="#004AAC" transform="translate(472,529)"/>
<path d="M0 0 C2 1 2 1 2 1 Z " fill="#0049AD" transform="translate(47,529)"/>
<path d="M0 0 C2 1 2 1 2 1 Z " fill="#004AAC" transform="translate(475,528)"/>
<path d="M0 0 C2 1 2 1 2 1 Z " fill="#0049AC" transform="translate(44,528)"/>
<path d="M0 0 C2 1 2 1 2 1 Z " fill="#004AAD" transform="translate(477,527)"/>
<path d="M0 0 C2 1 2 1 2 1 Z " fill="#004AAD" transform="translate(42,527)"/>
<path d="M0 0 C2 1 2 1 2 1 Z " fill="#004AAD" transform="translate(479,526)"/>
<path d="M0 0 C2 1 2 1 2 1 Z " fill="#004AAD" transform="translate(40,526)"/>
<path d="M0 0 C2 1 2 1 2 1 Z " fill="#004AAD" transform="translate(481,525)"/>
<path d="M0 0 C2 1 2 1 2 1 Z " fill="#004AAD" transform="translate(38,525)"/>
<path d="M0 0 C2 1 2 1 2 1 Z " fill="#0049AC" transform="translate(484,523)"/>
<path d="M0 0 C2 1 2 1 2 1 Z " fill="#004AAD" transform="translate(33,522)"/>
<path d="M0 0 C2 1 2 1 2 1 Z " fill="#0049AC" transform="translate(490,519)"/>
<path d="M0 0 C2 1 2 1 2 1 Z " fill="#004AAC" transform="translate(29,519)"/>
<path d="M0 0 C2 1 2 1 2 1 Z " fill="#0049AC" transform="translate(495,515)"/>
<path d="M0 0 C2 1 2 1 2 1 Z " fill="#0049AC" transform="translate(24,515)"/>
<path d="" fill="#0049AC" transform="translate(0,0)"/>
<path d="" fill="#0049AC" transform="translate(0,0)"/>
<path d="" fill="#004AAD" transform="translate(0,0)"/>
<path d="" fill="#004AAD" transform="translate(0,0)"/>
<path d="" fill="#004AAD" transform="translate(0,0)"/>
<path d="" fill="#0049AC" transform="translate(0,0)"/>
<path d="" fill="#004AAD" transform="translate(0,0)"/>
<path d="" fill="#004AAD" transform="translate(0,0)"/>
<path d="" fill="#004AAD" transform="translate(0,0)"/>
<path d="" fill="#004AAD" transform="translate(0,0)"/>
<path d="" fill="#004AAC" transform="translate(0,0)"/>
<path d="" fill="#0049AC" transform="translate(0,0)"/>
<path d="" fill="#004AAD" transform="translate(0,0)"/>
<path d="" fill="#0049AC" transform="translate(0,0)"/>
<path d="" fill="#0049AD" transform="translate(0,0)"/>
<path d="" fill="#0049AD" transform="translate(0,0)"/>
<path d="" fill="#0049AD" transform="translate(0,0)"/>
<path d="" fill="#0049AC" transform="translate(0,0)"/>
<path d="" fill="#004AAD" transform="translate(0,0)"/>
<path d="" fill="#0049AD" transform="translate(0,0)"/>
<path d="" fill="#004AAD" transform="translate(0,0)"/>
<path d="" fill="#004AAD" transform="translate(0,0)"/>
<path d="" fill="#0049AC" transform="translate(0,0)"/>
<path d="" fill="#004AAD" transform="translate(0,0)"/>
<path d="" fill="#004AAD" transform="translate(0,0)"/>
<path d="" fill="#0049AC" transform="translate(0,0)"/>
<path d="" fill="#004AAC" transform="translate(0,0)"/>
<path d="" fill="#0049AC" transform="translate(0,0)"/>
<path d="" fill="#0049AD" transform="translate(0,0)"/>
<path d="" fill="#004AAD" transform="translate(0,0)"/>
<path d="" fill="#004AAD" transform="translate(0,0)"/>
<path d="" fill="#004AAC" transform="translate(0,0)"/>
<path d="" fill="#0049AD" transform="translate(0,0)"/>
<path d="" fill="#004AAC" transform="translate(0,0)"/>
<path d="" fill="#004AAD" transform="translate(0,0)"/>
<path d="" fill="#0049AC" transform="translate(0,0)"/>
<path d="M0 0 C2 1 2 1 2 1 Z " fill="#0049AC" transform="translate(495,17)"/>
<path d="M0 0 C2 1 2 1 2 1 Z " fill="#004AAD" transform="translate(24,17)"/>
<path d="M0 0 C2 1 2 1 2 1 Z " fill="#004AAD" transform="translate(490,13)"/>
<path d="M0 0 C2 1 2 1 2 1 Z " fill="#0049AC" transform="translate(29,13)"/>
<path d="M0 0 C2 1 2 1 2 1 Z " fill="#0049AC" transform="translate(484,9)"/>
<path d="M0 0 C2 1 2 1 2 1 Z " fill="#004AAC" transform="translate(481,7)"/>
<path d="M0 0 C2 1 2 1 2 1 Z " fill="#004AAD" transform="translate(38,7)"/>
<path d="M0 0 C2 1 2 1 2 1 Z " fill="#004AAD" transform="translate(479,6)"/>
<path d="M0 0 C2 1 2 1 2 1 Z " fill="#0049AD" transform="translate(40,6)"/>
<path d="M0 0 C2 1 2 1 2 1 Z " fill="#0049AC" transform="translate(477,5)"/>
<path d="M0 0 C2 1 2 1 2 1 Z " fill="#004AAD" transform="translate(42,5)"/>
<path d="M0 0 C2 1 2 1 2 1 Z " fill="#0049AC" transform="translate(475,4)"/>
<path d="M0 0 C2 1 2 1 2 1 Z " fill="#004AAD" transform="translate(44,4)"/>
<path d="M0 0 C2 1 2 1 2 1 Z " fill="#004AAD" transform="translate(472,3)"/>
<path d="M0 0 C2 1 2 1 2 1 Z " fill="#004AAC" transform="translate(47,3)"/>
<path d="M0 0 C2 1 2 1 2 1 Z " fill="#0049AC" transform="translate(470,2)"/>
<path d="M0 0 C2 1 2 1 2 1 Z " fill="#004AAD" transform="translate(49,2)"/>
<path d="M0 0 C2 1 2 1 2 1 Z " fill="#0049AC" transform="translate(52,1)"/>
<path d="" fill="#004AAD" transform="translate(0,0)"/>
<path d="" fill="#004AAD" transform="translate(0,0)"/>
<path d="" fill="#004AAD" transform="translate(0,0)"/>
<path d="" fill="#0049AD" transform="translate(0,0)"/>
<path d="" fill="#004AAD" transform="translate(0,0)"/>
<path d="" fill="#004AAD" transform="translate(0,0)"/>
<path d="" fill="#0049AD" transform="translate(0,0)"/>
<path d="" fill="#004AAD" transform="translate(0,0)"/>
<path d="" fill="#004AAD" transform="translate(0,0)"/>
<path d="" fill="#004AAD" transform="translate(0,0)"/>
<path d="" fill="#004AAD" transform="translate(0,0)"/>
<path d="" fill="#0049AC" transform="translate(0,0)"/>
<path d="" fill="#004AAC" transform="translate(0,0)"/>
<path d="" fill="#004AAD" transform="translate(0,0)"/>
<path d="" fill="#004AAD" transform="translate(0,0)"/>
<path d="" fill="#004AAD" transform="translate(0,0)"/>
<path d="" fill="#004AAD" transform="translate(0,0)"/>
<path d="" fill="#004AAD" transform="translate(0,0)"/>
<path d="" fill="#0049AD" transform="translate(0,0)"/>
<path d="" fill="#004AAD" transform="translate(0,0)"/>
<path d="" fill="#004AAD" transform="translate(0,0)"/>
<path d="" fill="#004AAD" transform="translate(0,0)"/>
<path d="" fill="#004AAD" transform="translate(0,0)"/>
<path d="" fill="#004AAD" transform="translate(0,0)"/>
<path d="" fill="#0049AC" transform="translate(0,0)"/>
<path d="" fill="#004AAD" transform="translate(0,0)"/>
<path d="" fill="#0049AC" transform="translate(0,0)"/>
<path d="" fill="#004AAD" transform="translate(0,0)"/>
<path d="" fill="#004AAD" transform="translate(0,0)"/>
<path d="" fill="#004AAD" transform="translate(0,0)"/>
<path d="" fill="#004AAC" transform="translate(0,0)"/>
<path d="" fill="#004AAD" transform="translate(0,0)"/>
<path d="" fill="#004AAD" transform="translate(0,0)"/>
<path d="" fill="#004AAD" transform="translate(0,0)"/>
<path d="" fill="#0049AD" transform="translate(0,0)"/>
<path d="" fill="#004AAD" transform="translate(0,0)"/>
<path d="" fill="#004AAD" transform="translate(0,0)"/>
<path d="" fill="#0049AC" transform="translate(0,0)"/>
<path d="" fill="#004AAD" transform="translate(0,0)"/>
<path d="" fill="#004AAD" transform="translate(0,0)"/>
<path d="" fill="#004AAC" transform="translate(0,0)"/>
<path d="" fill="#004AAD" transform="translate(0,0)"/>
<path d="" fill="#004AAD" transform="translate(0,0)"/>
<path d="" fill="#004AAD" transform="translate(0,0)"/>
<path d="" fill="#004AAD" transform="translate(0,0)"/>
<path d="" fill="#004AAD" transform="translate(0,0)"/>
<path d="" fill="#004AAD" transform="translate(0,0)"/>
<path d="" fill="#004AAC" transform="translate(0,0)"/>
<path d="" fill="#004AAD" transform="translate(0,0)"/>
<path d="" fill="#004AAD" transform="translate(0,0)"/>
<path d="" fill="#004AAD" transform="translate(0,0)"/>
<path d="" fill="#004AAD" transform="translate(0,0)"/>
<path d="" fill="#004AAD" transform="translate(0,0)"/>
<path d="" fill="#004AAD" transform="translate(0,0)"/>
<path d="" fill="#004AAD" transform="translate(0,0)"/>
<path d="" fill="#0049AD" transform="translate(0,0)"/>
<path d="" fill="#004AAD" transform="translate(0,0)"/>
<path d="" fill="#0049AC" transform="translate(0,0)"/>
<path d="" fill="#004AAD" transform="translate(0,0)"/>
<path d="" fill="#004AAD" transform="translate(0,0)"/>
<path d="" fill="#004AAD" transform="translate(0,0)"/>
<path d="" fill="#004AAD" transform="translate(0,0)"/>
<path d="" fill="#004AAC" transform="translate(0,0)"/>
<path d="" fill="#0049AC" transform="translate(0,0)"/>
<path d="" fill="#004AAD" transform="translate(0,0)"/>
<path d="" fill="#004AAD" transform="translate(0,0)"/>
<path d="" fill="#004AAD" transform="translate(0,0)"/>
<path d="" fill="#004AAD" transform="translate(0,0)"/>
<path d="" fill="#004AAD" transform="translate(0,0)"/>
<path d="" fill="#004AAD" transform="translate(0,0)"/>
<path d="" fill="#004AAD" transform="translate(0,0)"/>
<path d="" fill="#004AAD" transform="translate(0,0)"/>
<path d="" fill="#0049AC" transform="translate(0,0)"/>
<path d="" fill="#0049AD" transform="translate(0,0)"/>
<path d="" fill="#004AAD" transform="translate(0,0)"/>
<path d="" fill="#004AAD" transform="translate(0,0)"/>
<path d="" fill="#0049AD" transform="translate(0,0)"/>
<path d="" fill="#004AAD" transform="translate(0,0)"/>
<path d="" fill="#004AAD" transform="translate(0,0)"/>
<path d="" fill="#0049AC" transform="translate(0,0)"/>
<path d="" fill="#004AAD" transform="translate(0,0)"/>
<path d="" fill="#004AAC" transform="translate(0,0)"/>
<path d="" fill="#004AAD" transform="translate(0,0)"/>
<path d="" fill="#0049AD" transform="translate(0,0)"/>
<path d="" fill="#004AAD" transform="translate(0,0)"/>
</svg>
