<?xml version="1.0" encoding="UTF-8"?>
<svg version="1.1" xmlns="http://www.w3.org/2000/svg" width="447" height="284">
<path d="M0 0 C147.51 0 295.02 0 447 0 C447 93.72 447 187.44 447 284 C299.49 284 151.98 284 0 284 C0 190.28 0 96.56 0 0 Z " fill="#3F3231" transform="translate(0,0)"/>
<path d="M0 0 C147.51 0 295.02 0 447 0 C447 33.99 447 67.98 447 103 C299.49 103 151.98 103 0 103 C0 69.01 0 35.02 0 0 Z " fill="#443A34" transform="translate(0,181)"/>
<path d="M0 0 C147.51 0 295.02 0 447 0 C447 18.81 447 37.62 447 57 C299.49 57 151.98 57 0 57 C0 38.19 0 19.38 0 0 Z " fill="#433229" transform="translate(0,124)"/>
<path d="M0 0 C147.51 0 295.02 0 447 0 C447 16.17 447 32.34 447 49 C299.49 49 151.98 49 0 49 C0 32.83 0 16.66 0 0 Z " fill="#48413D" transform="translate(0,235)"/>
<path d="M0 0 C43.89 0 87.78 0 133 0 C133 0.33 133 0.66 133 1 C134.03307486 0.99861731 134.03307486 0.99861731 135.08701992 0.99720669 C158.0371736 0.96705335 180.98732931 0.94835588 203.9375 0.9375 C205.27439951 0.93684855 205.27439951 0.93684855 206.63830709 0.93618393 C264.61482824 0.90871253 322.58742329 1.08954355 380.5625 1.5 C381.83101563 1.50896057 381.83101563 1.50896057 383.12515783 1.51810217 C404.41685343 1.66869807 425.70845115 1.82989562 447 2 C447 15.86 447 29.72 447 44 C299.49 44 151.98 44 0 44 C0 29.48 0 14.96 0 0 Z " fill="#3C322F" transform="translate(0,80)"/>
<path d="M0 0 C147.51 0 295.02 0 447 0 C447 6.27 447 12.54 447 19 C299.49 19 151.98 19 0 19 C0 12.73 0 6.46 0 0 Z " fill="#534C47" transform="translate(0,265)"/>
<path d="M0 0 C43.89 0 87.78 0 133 0 C133 0.33 133 0.66 133 1 C134.03307486 0.99861731 134.03307486 0.99861731 135.08701992 0.99720669 C158.0371736 0.96705335 180.98732931 0.94835588 203.9375 0.9375 C205.27439951 0.93684855 205.27439951 0.93684855 206.63830709 0.93618393 C264.61482824 0.90871253 322.58742329 1.08954355 380.5625 1.5 C381.83101563 1.50896057 381.83101563 1.50896057 383.12515783 1.51810217 C404.41685145 1.66869805 425.70846068 1.82893226 447 2 C447 7.61 447 13.22 447 19 C299.49 19.33 151.98 19.66 0 20 C0 13.4 0 6.8 0 0 Z " fill="#382A29" transform="translate(0,80)"/>
<path d="M0 0 C147.51 0 295.02 0 447 0 C447 5.28 447 10.56 447 16 C299.49 16 151.98 16 0 16 C0 10.72 0 5.44 0 0 Z " fill="#3D2E25" transform="translate(0,165)"/>
<path d="M0 0 C147.51 0 295.02 0 447 0 C447 4.95 447 9.9 447 15 C299.49 15 151.98 15 0 15 C0 10.05 0 5.1 0 0 Z " fill="#50433A" transform="translate(0,205)"/>
<path d="M0 0 C147.51 0 295.02 0 447 0 C447 3.63 447 7.26 447 11 C412.36030335 11.20354727 377.72051088 11.38659537 343.08061516 11.5528124 C341.06954349 11.56246619 339.05847198 11.57215371 337.04740047 11.58184195 C254.57013903 11.9783476 172.10271187 12.02433985 89.625 11.5625 C87.9036911 11.55290308 87.9036911 11.55290308 86.14760828 11.54311228 C57.43160096 11.38261337 28.71573562 11.20339789 0 11 C0 7.37 0 3.74 0 0 Z " fill="#3E3433" transform="translate(0,24)"/>
<path d="M0 0 C68.33643018 -0.06594077 136.6716877 0.00736863 205.0078125 0.21875 C205.89380154 0.22148658 206.77979059 0.22422317 207.69262779 0.22704268 C230.30723952 0.29697559 252.92183904 0.37050926 275.53643489 0.44538212 C288.63984702 0.4887302 301.74326218 0.53106301 314.84667969 0.57275391 C315.78540098 0.5757409 316.72412228 0.5787279 317.69128968 0.58180541 C322.40609539 0.59680281 327.12090116 0.61178418 331.83570695 0.62675762 C370.22381282 0.74869217 408.61190941 0.87335117 447 1 C447 3.97 447 6.94 447 10 C370.25036228 10.71783911 293.50312865 11.12580938 216.75 11.125 C215.31730947 11.12501511 215.31730947 11.12501511 213.8556757 11.12503052 C142.56688619 11.12427866 71.28480852 10.75101778 0 10 C0 6.7 0 3.4 0 0 Z " fill="#3A2928" transform="translate(0,49)"/>
<path d="M0 0 C147.51 0 295.02 0 447 0 C447 2.31 447 4.62 447 7 C299.49 7 151.98 7 0 7 C0 4.69 0 2.38 0 0 Z " fill="#4F443C" transform="translate(0,213)"/>
<path d="M0 0 C147.51 0 295.02 0 447 0 C447 2.31 447 4.62 447 7 C299.49 7 151.98 7 0 7 C0 4.69 0 2.38 0 0 Z " fill="#504138" transform="translate(0,198)"/>
<path d="M0 0 C0.75149586 -0.00115384 1.50299172 -0.00230769 2.27726018 -0.0034965 C4.79754418 -0.00614515 7.3177644 -0.00165542 9.83804512 0.00279331 C11.66226057 0.00235725 13.48647595 0.0014817 15.310691 0.00020415 C20.32523694 -0.00203399 25.33976156 0.00197119 30.35430479 0.00698221 C35.76120281 0.01129627 41.1680996 0.0098396 46.57499886 0.00907993 C55.94341378 0.00855531 65.31182174 0.01169573 74.68023491 0.01731777 C88.22542795 0.02544104 101.77061763 0.02804884 115.31581284 0.02930576 C137.29141602 0.03149498 159.26701549 0.03815154 181.24261665 0.04760838 C202.59124937 0.05678586 223.93988082 0.06386505 245.28851509 0.06811619 C246.6042038 0.06837891 247.91989251 0.06864164 249.27545057 0.06891232 C255.87580218 0.07021735 262.4761538 0.07148106 269.07650542 0.07272422 C323.84249037 0.08309278 378.60847131 0.10070756 433.37445259 0.12304783 C433.37445259 2.43304783 433.37445259 4.74304783 433.37445259 7.12304783 C285.86445259 7.12304783 138.35445259 7.12304783 -13.62554741 7.12304783 C-13.62554741 5.14304783 -13.62554741 3.16304783 -13.62554741 1.12304783 C-9.05448762 0.23124578 -4.64152683 -0.01762671 0 0 Z " fill="#564E48" transform="translate(13.625547409057617,276.8769521713257)"/>
<path d="M0 0 C147.51 0 295.02 0 447 0 C447 2.31 447 4.62 447 7 C299.49 7 151.98 7 0 7 C0 4.69 0 2.38 0 0 Z " fill="#4E403F" transform="translate(0,35)"/>
<path d="M0 0 C0.75256492 -0.00115384 1.50512984 -0.00230769 2.28049976 -0.0034965 C4.81646341 -0.00615524 7.35236429 -0.00164707 9.88832474 0.00279331 C11.71906367 0.00235746 13.54980255 0.00148229 15.38054109 0.00020415 C20.42240881 -0.00203804 25.46425541 0.00197673 30.50612044 0.00698221 C35.93895706 0.01129046 41.37179243 0.00984002 46.80463028 0.00907993 C56.22109892 0.00855494 65.63756065 0.01169921 75.05402756 0.01731777 C88.66875077 0.02543605 102.28347064 0.02804833 115.89819601 0.02930576 C137.98582951 0.03149576 160.07345936 0.03814588 182.16109085 0.04760838 C203.62040055 0.05679109 225.07970927 0.06387555 246.53902054 0.06811619 C247.2003612 0.06824771 247.86170187 0.06837924 248.54308316 0.06851475 C255.84346689 0.06996409 263.14385063 0.07135594 270.44423437 0.07272422 C325.49259663 0.08309522 380.54095489 0.10071214 435.58931351 0.12304783 C435.58931351 2.43304783 435.58931351 4.74304783 435.58931351 7.12304783 C288.07931351 7.12304783 140.56931351 7.12304783 -11.41068649 7.12304783 C-11.41068649 5.14304783 -11.41068649 3.16304783 -11.41068649 1.12304783 C-7.64052459 -0.0846876 -3.91469861 -0.01468683 0 0 Z " fill="#443936" transform="translate(11.410686492919922,108.87695217132568)"/>
<path d="M0 0 C147.51 0 295.02 0 447 0 C447 2.31 447 4.62 447 7 C299.49 7 151.98 7 0 7 C0 4.69 0 2.38 0 0 Z " fill="#514A45" transform="translate(0,235)"/>
<path d="M0 0 C147.51 0 295.02 0 447 0 C447 2.31 447 4.62 447 7 C299.49 7 151.98 7 0 7 C0 4.69 0 2.38 0 0 Z " fill="#432F23" transform="translate(0,165)"/>
<path d="M0 0 C43.89 0 87.78 0 133 0 C133 0.33 133 0.66 133 1 C134.03307486 0.99861731 134.03307486 0.99861731 135.08701992 0.99720669 C158.0371736 0.96705335 180.98732931 0.94835588 203.9375 0.9375 C205.27439951 0.93684855 205.27439951 0.93684855 206.63830709 0.93618393 C264.61482824 0.90871253 322.58742329 1.08954355 380.5625 1.5 C381.83101563 1.50896057 381.83101563 1.50896057 383.12515783 1.51810217 C404.41685086 1.66869805 425.70846401 1.8285756 447 2 C447 3.98 447 5.96 447 8 C299.49 8 151.98 8 0 8 C0 5.36 0 2.72 0 0 Z " fill="#382827" transform="translate(0,80)"/>
<path d="M0 0 C147.51 0 295.02 0 447 0 C447 1.65 447 3.3 447 5 C427.43782442 5.22563534 407.87532843 5.4051926 388.3125 5.5625 C387.52367589 5.56888284 386.73485178 5.57526568 385.92212391 5.58184195 C303.75377073 6.24280593 221.58596797 5.88511112 139.41687721 5.57217997 C136.86759809 5.56247181 134.31831887 5.55279058 131.76903963 5.54311228 C87.84596594 5.376175 43.92295711 5.1952229 0 5 C0 3.35 0 1.7 0 0 Z " fill="#413735" transform="translate(0,0)"/>
<path d="M0 0 C147.51 0 295.02 0 447 0 C447 1.65 447 3.3 447 5 C299.49 5.33 151.98 5.66 0 6 C0 4.02 0 2.04 0 0 Z " fill="#332B27" transform="translate(0,124)"/>
<path d="M0 0 C147.51 0 295.02 0 447 0 C447 1.65 447 3.3 447 5 C299.49 5.33 151.98 5.66 0 6 C0 4.02 0 2.04 0 0 Z " fill="#443E3A" transform="translate(0,272)"/>
<path d="M0 0 C147.51 0 295.02 0 447 0 C447 1.65 447 3.3 447 5 C299.49 5 151.98 5 0 5 C0 3.35 0 1.7 0 0 Z " fill="#413C38" transform="translate(0,260)"/>
<path d="M0 0 C147.51 0 295.02 0 447 0 C447 1.65 447 3.3 447 5 C299.49 5 151.98 5 0 5 C0 3.35 0 1.7 0 0 Z " fill="#3F3732" transform="translate(0,220)"/>
<path d="M0 0 C147.51 0 295.02 0 447 0 C447 1.65 447 3.3 447 5 C299.49 5 151.98 5 0 5 C0 3.35 0 1.7 0 0 Z " fill="#6A4F3E" transform="translate(0,181)"/>
<path d="M0 0 C147.51 0 295.02 0 447 0 C447 1.98 447 3.96 447 6 C398.16 6 349.32 6 299 6 C299 5.67 299 5.34 299 5 C200.33 4.67 101.66 4.34 0 4 C0 2.68 0 1.36 0 0 Z " fill="#433228" transform="translate(0,140)"/>
<path d="M0 0 C1.29166343 0.00004181 1.29166343 0.00004181 2.60942107 0.00008446 C24.49237404 0.00101151 46.37531862 0.0114942 68.25826657 0.02562964 C80.92828081 0.03371984 93.59829427 0.03907513 106.26831055 0.04272461 C107.17778437 0.04298733 108.0872582 0.04325006 109.02429184 0.04352074 C113.59280523 0.04482701 118.16131864 0.04609043 122.72983205 0.04733264 C159.8472359 0.05747932 196.96463309 0.07488333 234.08203125 0.09765625 C234.08203125 1.74765625 234.08203125 3.39765625 234.08203125 5.09765625 C130.13203125 5.09765625 26.18203125 5.09765625 -80.91796875 5.09765625 C-80.91796875 4.76765625 -80.91796875 4.43765625 -80.91796875 4.09765625 C-124.47796875 3.76765625 -168.03796875 3.43765625 -212.91796875 3.09765625 C-212.91796875 2.43765625 -212.91796875 1.77765625 -212.91796875 1.09765625 C-141.94509354 0.40645613 -70.97633994 -0.00317857 0 0 Z " fill="#574A48" transform="translate(212.91796875,76.90234375)"/>
<path d="M0 0 C147.51 0 295.02 0 447 0 C447 0.99 447 1.98 447 3 C412.43754573 3.17642639 377.87504377 3.34208894 343.3125 3.5 C341.36332279 3.50892281 341.36332279 3.50892281 339.37476826 3.51802588 C256.87451998 3.89499907 174.37626964 4.09324499 91.875 4.0625 C90.70186894 4.06207577 89.52873788 4.06165154 88.32005739 4.06121445 C58.88002985 4.05038278 29.44001347 4.03076667 0 4 C0 2.68 0 1.36 0 0 Z " fill="#403C39" transform="translate(0,250)"/>
<path d="M0 0 C147.51 0 295.02 0 447 0 C447 0.99 447 1.98 447 3 C379.83519249 3.75879054 312.67661248 4.10054316 245.5078125 4.09765625 C244.61076564 4.09762838 243.71371877 4.09760051 242.78948867 4.09757179 C219.8497026 4.09663907 196.90992441 4.08609865 173.97014308 4.07202661 C160.6741062 4.06396309 147.37807005 4.05859149 134.08203125 4.05493164 C133.13031108 4.05466892 132.1785909 4.05440619 131.19803073 4.05413551 C126.41820615 4.05282941 121.63838157 4.05156596 116.85855699 4.05032361 C77.90570081 4.04014508 38.95285079 4.02270862 0 4 C0 2.68 0 1.36 0 0 Z " fill="#372322" transform="translate(0,88)"/>
<path d="M0 0 C147.51 0 295.02 0 447 0 C447 0.99 447 1.98 447 3 C380.42108851 3.77115715 313.84862539 4.10050036 247.265625 4.09765625 C246.36304923 4.09762838 245.46047346 4.09760051 244.5305469 4.09757179 C221.42817111 4.09663823 198.32580314 4.08608946 175.22343206 4.07202661 C161.83108401 4.06396696 148.43873668 4.05859301 135.04638672 4.05493164 C134.08816711 4.05466892 133.1299475 4.05440619 132.14269093 4.05413551 C127.33035694 4.05282944 122.51802295 4.05156598 117.70568895 4.05032361 C78.47045549 4.04014043 39.23522812 4.02269929 0 4 C0 2.68 0 1.36 0 0 Z " fill="#372625" transform="translate(0,74)"/>
<path d="M0 0 C2.50083296 0.00970853 5.00166603 0.01938961 7.5024991 0.0290677 C50.52038827 0.19573184 93.53820966 0.37663467 136.55597734 0.57217997 C136.55597734 1.56217997 136.55597734 2.55217997 136.55597734 3.57217997 C-10.95402266 3.57217997 -158.46402266 3.57217997 -310.44402266 3.57217997 C-310.44402266 2.58217997 -310.44402266 1.59217997 -310.44402266 0.57217997 C-289.9443307 0.34735361 -269.44432095 0.16815413 -248.94402266 0.00967997 C-248.12328434 0.00329713 -247.30254601 -0.00308571 -246.45693684 -0.00966197 C-164.30413239 -0.64494955 -82.15338858 -0.31894466 0 0 Z " fill="#302219" transform="translate(310.44402265548706,171.42782002687454)"/>
<path d="M0 0 C147.51 0 295.02 0 447 0 C447 0.99 447 1.98 447 3 C370.25039963 3.71979879 293.50309933 4.12580938 216.75 4.125 C215.31730947 4.12501511 215.31730947 4.12501511 213.8556757 4.12503052 C142.56688619 4.12427866 71.28480852 3.75101778 0 3 C0 2.01 0 1.02 0 0 Z " fill="#332A29" transform="translate(0,56)"/>
<path d="M0 0 C147.51 0 295.02 0 447 0 C447 0.99 447 1.98 447 3 C415.1959216 3.12867667 383.39183881 3.25619393 351.58774966 3.38218227 C347.79816445 3.39719527 344.00857928 3.41221774 340.21899414 3.42724609 C339.46483322 3.43023671 338.7106723 3.43322732 337.93365801 3.43630856 C325.86224083 3.48419999 313.79082684 3.53285186 301.71941393 3.58180541 C289.25172473 3.63234827 276.78403228 3.68202624 264.31633669 3.73096704 C257.3477238 3.75834477 250.37911276 3.7860753 243.41050529 3.81480408 C196.32817384 4.00853097 149.24465753 4.18798939 102.16290593 3.79807091 C98.52637638 3.76845234 94.88982738 3.74140021 91.25328064 3.71398926 C84.47294081 3.66253533 77.69261916 3.60902211 70.91230243 3.5546174 C63.1481891 3.49243053 55.38405686 3.43277027 47.61992276 3.37324238 C31.74659382 3.25148851 15.87328932 3.12682121 0 3 C0 2.01 0 1.02 0 0 Z " fill="#36312D" transform="translate(0,232)"/>
<path d="M0 0 C147.51 0 295.02 0 447 0 C447 0.99 447 1.98 447 3 C404.43662365 3.19965923 361.87318971 3.38350756 319.30968207 3.5528124 C316.88252024 3.56247008 314.45535853 3.57215573 312.02819681 3.58184195 C229.82944568 3.90931357 147.63581424 4.16874892 65.4375 3.5625 C64.56507251 3.55610205 63.69264502 3.5497041 62.79378033 3.54311228 C41.86226125 3.38911023 20.93100585 3.21318988 0 3 C0 2.01 0 1.02 0 0 Z " fill="#352921" transform="translate(0,186)"/>
<path d="M0 0 C147.51 0 295.02 0 447 0 C447 0.99 447 1.98 447 3 C410.27307282 3.13029445 373.54613699 3.2578462 336.81918915 3.38218227 C332.38808567 3.39718554 327.95698227 3.41220941 323.52587891 3.42724609 C322.64448363 3.43023671 321.76308836 3.43322732 320.85498413 3.43630856 C308.65977565 3.47772963 296.46457142 3.52023893 284.26937002 3.56369197 C263.12229766 3.6390404 241.97521842 3.71204553 220.828125 3.78125 C219.9918483 3.78399162 219.1555716 3.78673324 218.29395318 3.78955793 C145.52923436 4.02759981 72.76504 4.05863532 0 4 C0 2.68 0 1.36 0 0 Z " fill="#2E2624" transform="translate(0,106)"/>
<path d="M0 0 C147.51 0 295.02 0 447 0 C447 0.99 447 1.98 447 3 C402.40964021 3.1990741 357.81922588 3.38288021 313.2287457 3.5528124 C310.6951422 3.56247087 308.1615388 3.57215613 305.62793541 3.58184195 C140.28145759 4.21291056 140.28145759 4.21291056 59.25 3.5625 C58.44794994 3.55610205 57.64589988 3.5497041 56.81954527 3.54311228 C37.87938519 3.3914905 18.93954738 3.21596281 0 3 C0 2.01 0 1.02 0 0 Z " fill="#2A1E17" transform="translate(0,154)"/>
<path d="M0 0 C147.51 0 295.02 0 447 0 C447 0.99 447 1.98 447 3 C403.14672543 3.19934326 359.29339434 3.38310216 315.43999529 3.5528124 C312.94509785 3.56247059 310.45020052 3.57215599 307.95530319 3.58184195 C225.80210884 3.90025246 143.65255919 4.20139646 61.5 3.5625 C60.67235815 3.55610205 59.84471629 3.5497041 58.99199438 3.54311228 C39.32770774 3.39057798 19.66370653 3.21565785 0 3 C0 2.01 0 1.02 0 0 Z " fill="#342C2B" transform="translate(0,24)"/>
<path d="M0 0 C147.51 0 295.02 0 447 0 C447 0.99 447 1.98 447 3 C299.49 3 151.98 3 0 3 C0 2.01 0 1.02 0 0 Z " fill="#716760" transform="translate(0,269)"/>
<path d="M0 0 C147.51 0 295.02 0 447 0 C447 0.99 447 1.98 447 3 C299.49 3 151.98 3 0 3 C0 2.01 0 1.02 0 0 Z " fill="#6C635D" transform="translate(0,257)"/>
<path d="M0 0 C147.51 0 295.02 0 447 0 C447 0.99 447 1.98 447 3 C299.49 3 151.98 3 0 3 C0 2.01 0 1.02 0 0 Z " fill="#6C615A" transform="translate(0,229)"/>
<path d="M0 0 C147.51 0 295.02 0 447 0 C447 0.99 447 1.98 447 3 C299.49 3 151.98 3 0 3 C0 2.01 0 1.02 0 0 Z " fill="#695B51" transform="translate(0,217)"/>
<path d="M0 0 C147.51 0 295.02 0 447 0 C447 0.99 447 1.98 447 3 C299.49 3 151.98 3 0 3 C0 2.01 0 1.02 0 0 Z " fill="#352B24" transform="translate(0,198)"/>
<path d="M0 0 C147.51 0 295.02 0 447 0 C447 0.99 447 1.98 447 3 C299.49 3 151.98 3 0 3 C0 2.01 0 1.02 0 0 Z " fill="#543D2F" transform="translate(0,151)"/>
<path d="M0 0 C147.51 0 295.02 0 447 0 C447 0.99 447 1.98 447 3 C299.49 3 151.98 3 0 3 C0 2.01 0 1.02 0 0 Z " fill="#2A1F18" transform="translate(0,148)"/>
<path d="M0 0 C147.51 0 295.02 0 447 0 C447 0.99 447 1.98 447 3 C299.49 3 151.98 3 0 3 C0 2.01 0 1.02 0 0 Z " fill="#554338" transform="translate(0,137)"/>
<path d="M0 0 C147.51 0 295.02 0 447 0 C447 0.99 447 1.98 447 3 C299.49 3 151.98 3 0 3 C0 2.01 0 1.02 0 0 Z " fill="#2A211D" transform="translate(0,134)"/>
<path d="M0 0 C147.51 0 295.02 0 447 0 C447 0.99 447 1.98 447 3 C299.49 3 151.98 3 0 3 C0 2.01 0 1.02 0 0 Z " fill="#6A5A57" transform="translate(0,21)"/>
<path d="M0 0 C147.51 0 295.02 0 447 0 C447 0.99 447 1.98 447 3 C299.49 3 151.98 3 0 3 C0 2.01 0 1.02 0 0 Z " fill="#352D2C" transform="translate(0,18)"/>
<path d="M0 0 C0.75149586 -0.00115384 1.50299172 -0.00230769 2.27726018 -0.0034965 C4.79754418 -0.00614515 7.3177644 -0.00165542 9.83804512 0.00279331 C11.66226057 0.00235725 13.48647595 0.0014817 15.310691 0.00020415 C20.32523694 -0.00203399 25.33976156 0.00197119 30.35430479 0.00698221 C35.76120281 0.01129627 41.1680996 0.0098396 46.57499886 0.00907993 C55.94341378 0.00855531 65.31182174 0.01169573 74.68023491 0.01731777 C88.22542795 0.02544104 101.77061763 0.02804884 115.31581284 0.02930576 C137.29141602 0.03149498 159.26701549 0.03815154 181.24261665 0.04760838 C202.59124937 0.05678586 223.93988082 0.06386505 245.28851509 0.06811619 C246.6042038 0.06837891 247.91989251 0.06864164 249.27545057 0.06891232 C255.87580218 0.07021735 262.4761538 0.07148106 269.07650542 0.07272422 C323.84249037 0.08309278 378.60847131 0.10070756 433.37445259 0.12304783 C433.37445259 1.11304783 433.37445259 2.10304783 433.37445259 3.12304783 C285.86445259 3.12304783 138.35445259 3.12304783 -13.62554741 3.12304783 C-13.62554741 2.46304783 -13.62554741 1.80304783 -13.62554741 1.12304783 C-9.05448762 0.23124578 -4.64152683 -0.01762671 0 0 Z " fill="#736961" transform="translate(13.625547409057617,276.8769521713257)"/>
<path d="M0 0 C147.51 0 295.02 0 447 0 C447 0.99 447 1.98 447 3 C299.49 3 151.98 3 0 3 C0 2.01 0 1.02 0 0 Z " fill="#685856" transform="translate(0,27)"/>
<path d="M0 0 C0.75256492 -0.00115384 1.50512984 -0.00230769 2.28049976 -0.0034965 C4.81646341 -0.00615524 7.35236429 -0.00164707 9.88832474 0.00279331 C11.71906367 0.00235746 13.54980255 0.00148229 15.38054109 0.00020415 C20.42240881 -0.00203804 25.46425541 0.00197673 30.50612044 0.00698221 C35.93895706 0.01129046 41.37179243 0.00984002 46.80463028 0.00907993 C56.22109892 0.00855494 65.63756065 0.01169921 75.05402756 0.01731777 C88.66875077 0.02543605 102.28347064 0.02804833 115.89819601 0.02930576 C137.98582951 0.03149576 160.07345936 0.03814588 182.16109085 0.04760838 C203.62040055 0.05679109 225.07970927 0.06387555 246.53902054 0.06811619 C247.2003612 0.06824771 247.86170187 0.06837924 248.54308316 0.06851475 C255.84346689 0.06996409 263.14385063 0.07135594 270.44423437 0.07272422 C325.49259663 0.08309522 380.54095489 0.10071214 435.58931351 0.12304783 C435.58931351 1.11304783 435.58931351 2.10304783 435.58931351 3.12304783 C288.07931351 3.12304783 140.56931351 3.12304783 -11.41068649 3.12304783 C-11.41068649 2.46304783 -11.41068649 1.80304783 -11.41068649 1.12304783 C-7.64052459 -0.0846876 -3.91469861 -0.01468683 0 0 Z " fill="#5D4B49" transform="translate(11.410686492919922,102.87695217132568)"/>
<path d="M0 0 C147.51 0 295.02 0 447 0 C447 0.99 447 1.98 447 3 C299.49 3 151.98 3 0 3 C0 2.01 0 1.02 0 0 Z " fill="#675755" transform="translate(0,35)"/>
<path d="M0 0 C147.51 0 295.02 0 447 0 C447 0.99 447 1.98 447 3 C299.49 3 151.98 3 0 3 C0 2.01 0 1.02 0 0 Z " fill="#6B5C59" transform="translate(0,5)"/>
<path d="M0 0 C147.51 0 295.02 0 447 0 C447 0.99 447 1.98 447 3 C299.49 3 151.98 3 0 3 C0 2.01 0 1.02 0 0 Z " fill="#6B5B59" transform="translate(0,15)"/>
<path d="M0 0 C147.51 0 295.02 0 447 0 C447 0.99 447 1.98 447 3 C299.49 3 151.98 3 0 3 C0 2.01 0 1.02 0 0 Z " fill="#624947" transform="translate(0,85)"/>
<path d="M0 0 C147.51 0 295.02 0 447 0 C447 0.99 447 1.98 447 3 C299.49 3 151.98 3 0 3 C0 2.01 0 1.02 0 0 Z " fill="#685453" transform="translate(0,53)"/>
<path d="M0 0 C147.51 0 295.02 0 447 0 C447 0.99 447 1.98 447 3 C299.49 3 151.98 3 0 3 C0 2.01 0 1.02 0 0 Z " fill="#6D5545" transform="translate(0,189)"/>
<path d="M0 0 C0.75149586 -0.00115384 1.50299172 -0.00230769 2.27726018 -0.0034965 C4.79754418 -0.00614515 7.3177644 -0.00165542 9.83804512 0.00279331 C11.66226057 0.00235725 13.48647595 0.0014817 15.310691 0.00020415 C20.32523694 -0.00203399 25.33976156 0.00197119 30.35430479 0.00698221 C35.76120281 0.01129627 41.1680996 0.0098396 46.57499886 0.00907993 C55.94341378 0.00855531 65.31182174 0.01169573 74.68023491 0.01731777 C88.22542795 0.02544104 101.77061763 0.02804884 115.31581284 0.02930576 C137.29141602 0.03149498 159.26701549 0.03815154 181.24261665 0.04760838 C202.59124937 0.05678586 223.93988082 0.06386505 245.28851509 0.06811619 C246.6042038 0.06837891 247.91989251 0.06864164 249.27545057 0.06891232 C255.87580218 0.07021735 262.4761538 0.07148106 269.07650542 0.07272422 C323.84249037 0.08309278 378.60847131 0.10070756 433.37445259 0.12304783 C433.37445259 1.11304783 433.37445259 2.10304783 433.37445259 3.12304783 C285.86445259 3.12304783 138.35445259 3.12304783 -13.62554741 3.12304783 C-13.62554741 2.46304783 -13.62554741 1.80304783 -13.62554741 1.12304783 C-9.05448762 0.23124578 -4.64152683 -0.01762671 0 0 Z " fill="#5C4E48" transform="translate(13.625547409057617,112.87695217132568)"/>
<path d="M0 0 C147.51 0 295.02 0 447 0 C447 0.99 447 1.98 447 3 C299.49 3 151.98 3 0 3 C0 2.01 0 1.02 0 0 Z " fill="#685554" transform="translate(0,59)"/>
<path d="M0 0 C147.51 0 295.02 0 447 0 C447 0.99 447 1.98 447 3 C299.49 3 151.98 3 0 3 C0 2.01 0 1.02 0 0 Z " fill="#5E4230" transform="translate(0,169)"/>
<path d="M0 0 C0.75149586 -0.00115384 1.50299172 -0.00230769 2.27726018 -0.0034965 C4.79754418 -0.00614515 7.3177644 -0.00165542 9.83804512 0.00279331 C11.66226057 0.00235725 13.48647595 0.0014817 15.310691 0.00020415 C20.32523694 -0.00203399 25.33976156 0.00197119 30.35430479 0.00698221 C35.76120281 0.01129627 41.1680996 0.0098396 46.57499886 0.00907993 C55.94341378 0.00855531 65.31182174 0.01169573 74.68023491 0.01731777 C88.22542795 0.02544104 101.77061763 0.02804884 115.31581284 0.02930576 C137.29141602 0.03149498 159.26701549 0.03815154 181.24261665 0.04760838 C202.59124937 0.05678586 223.93988082 0.06386505 245.28851509 0.06811619 C246.6042038 0.06837891 247.91989251 0.06864164 249.27545057 0.06891232 C255.87580218 0.07021735 262.4761538 0.07148106 269.07650542 0.07272422 C323.84249037 0.08309278 378.60847131 0.10070756 433.37445259 0.12304783 C433.37445259 1.11304783 433.37445259 2.10304783 433.37445259 3.12304783 C285.86445259 3.12304783 138.35445259 3.12304783 -13.62554741 3.12304783 C-13.62554741 2.46304783 -13.62554741 1.80304783 -13.62554741 1.12304783 C-9.05448762 0.23124578 -4.64152683 -0.01762671 0 0 Z " fill="#594C45" transform="translate(13.625547409057617,120.87695217132568)"/>
<path d="M0 0 C1.77855102 -0.00043755 3.55710197 -0.00131582 5.33565259 -0.00258917 C10.15894607 -0.00479807 14.98221683 -0.00086302 19.80550742 0.0041889 C25.03083523 0.00854573 30.25616197 0.00704329 35.48149109 0.00628662 C44.51352995 0.00576468 53.54556154 0.0088769 62.57759857 0.01452446 C75.6360804 0.02268432 88.69455875 0.02525926 101.75304285 0.02651245 C122.94443371 0.02869595 144.13582071 0.03533693 165.32720947 0.04481506 C185.90110251 0.05400739 206.47499449 0.0610793 227.04888916 0.06532288 C228.3190818 0.0655856 229.58927444 0.06584832 230.89795777 0.06611901 C237.2707435 0.06742413 243.64352924 0.06868782 250.01631498 0.06993091 C302.80565879 0.08028164 355.59499839 0.09788078 408.38433838 0.12025452 C408.38433838 1.11025452 408.38433838 2.10025452 408.38433838 3.12025452 C260.87433838 3.12025452 113.36433838 3.12025452 -38.61566162 3.12025452 C-38.61566162 2.46025452 -38.61566162 1.80025452 -38.61566162 1.12025452 C-25.7310506 0.37734244 -12.90483833 -0.02415092 0 0 Z " fill="#6E5749" transform="translate(38.61566162109375,194.87974548339844)"/>
<path d="M0 0 C1.78181276 -0.00043744 3.56362546 -0.00131551 5.34543782 -0.00258917 C10.18239219 -0.00480021 15.01932395 -0.00085997 19.85627544 0.0041889 C25.09457255 0.00854254 30.33286858 0.00704351 35.57116699 0.00628662 C44.62723272 0.00576448 53.68329119 0.00887879 62.73935509 0.01452446 C75.832602 0.02268161 88.92584544 0.02525899 102.01909462 0.02651245 C123.26650065 0.02869637 144.51390283 0.03533851 165.76130676 0.04481506 C186.39053834 0.05400629 207.01976886 0.06107875 227.64900208 0.06532288 C228.92244444 0.0655856 230.1958868 0.06584832 231.50791832 0.06611901 C237.89695876 0.06742413 244.2859992 0.06868782 250.67503965 0.06993091 C303.60557211 0.08028296 356.53610038 0.09788325 409.46662903 0.12025452 C409.46662903 1.11025452 409.46662903 2.10025452 409.46662903 3.12025452 C261.95662903 3.12025452 114.44662903 3.12025452 -37.53337097 3.12025452 C-37.53337097 2.46025452 -37.53337097 1.80025452 -37.53337097 1.12025452 C-25.00845391 0.35360269 -12.54690241 -0.0233805 0 0 Z " fill="#70655E" transform="translate(37.53337097167969,238.87974548339844)"/>
<path d="M0 0 C147.51 0 295.02 0 447 0 C447 0.99 447 1.98 447 3 C407.67357895 3.02328325 368.34715899 3.04070312 329.02073235 3.05106533 C324.29604812 3.05231489 319.5713639 3.05360933 314.84667969 3.05493164 C313.43675779 3.05532511 313.43675779 3.05532511 311.99835263 3.05572652 C298.9307989 3.05946548 285.86324829 3.06559211 272.79569659 3.07373433 C250.19973567 3.08781087 227.60377806 3.09694542 205.0078125 3.09765625 C204.12149238 3.09769482 203.23517226 3.09773339 202.32199395 3.09777313 C134.87710881 3.09973624 67.44101727 2.72615541 0 2 C0 1.34 0 0.68 0 0 Z " fill="#645958" transform="translate(0,47)"/>
<path d="M0 0 C147.51 0 295.02 0 447 0 C447 0.99 447 1.98 447 3 C299.49 3 151.98 3 0 3 C0 2.01 0 1.02 0 0 Z " fill="#5E4130" transform="translate(0,175)"/>
<path d="M0 0 C1.27093002 0.00004181 1.27093002 0.00004181 2.5675354 0.00008446 C24.0440141 0.0010092 45.52048421 0.01146798 66.99695778 0.02562964 C79.42619408 0.03373086 91.85542959 0.03907938 104.28466797 0.04272461 C105.1778932 0.04298733 106.07111843 0.04325006 106.99141109 0.04352074 C111.47865096 0.04482709 115.96589084 0.04609048 120.45313072 0.04733264 C156.86459135 0.05746628 193.27604519 0.07485676 229.6875 0.09765625 C229.6875 1.08765625 229.6875 2.07765625 229.6875 3.09765625 C82.1775 3.09765625 -65.3325 3.09765625 -217.3125 3.09765625 C-217.3125 2.43765625 -217.3125 1.77765625 -217.3125 1.09765625 C-144.87496017 0.42614836 -72.44081182 -0.00329737 0 0 Z " fill="#655959" transform="translate(217.3125,64.90234375)"/>
<path d="M0 0 C1.26263666 0.00004181 1.26263666 0.00004181 2.55078113 0.00008446 C23.86467012 0.00100825 45.17855044 0.01145719 66.49243426 0.02562964 C78.82535939 0.0337354 91.15828371 0.03908112 103.49121094 0.04272461 C104.37793673 0.04298733 105.26466252 0.04325006 106.17825879 0.04352074 C110.63298925 0.04482712 115.08771972 0.0460905 119.54245019 0.04733264 C155.67153358 0.05746093 191.80060995 0.07484583 227.9296875 0.09765625 C227.9296875 1.08765625 227.9296875 2.07765625 227.9296875 3.09765625 C80.4196875 3.09765625 -67.0903125 3.09765625 -219.0703125 3.09765625 C-219.0703125 2.43765625 -219.0703125 1.77765625 -219.0703125 1.09765625 C-146.04689405 0.43413173 -73.02661634 -0.00334599 0 0 Z " fill="#635654" transform="translate(219.0703125,70.90234375)"/>
<path d="M0 0 C0.8279355 0.00002787 1.655871 0.00005574 2.50889546 0.00008446 C23.41631019 0.00100583 44.32371603 0.0114294 65.23112547 0.02562964 C77.32327266 0.03374709 89.41541902 0.0390856 101.50756836 0.04272461 C102.37804556 0.04298733 103.24852275 0.04325006 104.14537805 0.04352074 C108.51883497 0.04482719 112.89229191 0.04609056 117.26574886 0.04733264 C152.68888905 0.0574472 188.11202205 0.07481768 223.53515625 0.09765625 C223.53515625 1.08765625 223.53515625 2.07765625 223.53515625 3.09765625 C76.02515625 3.09765625 -71.48484375 3.09765625 -223.46484375 3.09765625 C-223.46484375 2.43765625 -223.46484375 1.77765625 -223.46484375 1.09765625 C-148.97669417 0.45277092 -74.49116544 -0.0034704 0 0 Z " fill="#5E4D4A" transform="translate(223.46484375,90.90234375)"/>
<path d="M0 0 C1.34008265 0.0004292 2.68016529 0.00085771 4.02024794 0.00128555 C37.80517234 0.01219291 71.59008747 0.03220136 105.375 0.0625 C105.375 1.0525 105.375 2.0425 105.375 3.0625 C-42.135 3.0625 -189.645 3.0625 -341.625 3.0625 C-341.625 2.4025 -341.625 1.7425 -341.625 1.0625 C-311.56256789 0.88314095 -281.50006412 0.71812824 -251.4375 0.5625 C-250.29123673 0.55655146 -249.14497347 0.55060292 -247.96397495 0.54447412 C-165.30884303 0.11652399 -82.65599642 -0.02722415 0 0 Z " fill="#675C55" transform="translate(341.625,246.9375)"/>
<path d="M0 0 C1.78833524 0.00370441 3.57667147 0.00695096 5.36500829 0.00978523 C10.22929593 0.01879465 15.09354446 0.03421358 19.95781147 0.05076802 C25.22203836 0.06752961 30.48627817 0.07822075 35.7505188 0.0896759 C44.85464639 0.1103051 53.95875739 0.1347192 63.06286812 0.16175652 C76.22563519 0.20084164 89.38841199 0.23413706 102.55119818 0.26605178 C123.91064416 0.31799604 145.27007522 0.37457625 166.62950134 0.43409729 C187.3694043 0.49188196 208.10931124 0.54746748 228.84922791 0.60011292 C230.1291697 0.60336263 231.4091115 0.60661235 232.72783942 0.60996055 C239.14938918 0.62625109 245.57093905 0.64249858 251.99248898 0.65872467 C305.20541448 0.79323968 358.41831796 0.93528914 411.63121033 1.08229065 C411.63121033 1.74229065 411.63121033 2.40229065 411.63121033 3.08229065 C264.12121033 3.08229065 116.61121033 3.08229065 -35.36878967 3.08229065 C-35.36878967 2.42229065 -35.36878967 1.76229065 -35.36878967 1.08229065 C-23.56142067 0.25289725 -11.8340175 -0.05025019 0 0 Z " fill="#503E32" transform="translate(35.36878967285156,182.91770935058594)"/>
</svg>
