<svg xmlns="http://www.w3.org/2000/svg" xmlns:xlink="http://www.w3.org/1999/xlink" width="500" zoomAndPan="magnify" viewBox="0 0 375 374.999991" height="500" preserveAspectRatio="xMidYMid meet" version="1.0"><defs><clipPath id="00f823c02d"><path d="M 29.5625 29.5625 L 345.3125 29.5625 L 345.3125 345.3125 L 29.5625 345.3125 Z M 29.5625 29.5625 " clip-rule="nonzero"/></clipPath></defs><g clip-path="url(#00f823c02d)"><path fill="#000000" d="M 187.4375 29.5625 C 100.175781 29.5625 29.5625 100.175781 29.5625 187.4375 C 29.5625 274.699219 100.175781 345.3125 187.4375 345.3125 C 274.699219 345.3125 345.3125 274.699219 345.3125 187.4375 C 345.3125 100.175781 274.699219 29.5625 187.4375 29.5625 Z M 187.4375 316.605469 C 116.25 316.605469 58.265625 258.625 58.265625 187.4375 C 58.265625 116.25 116.25 58.265625 187.4375 58.265625 C 258.625 58.265625 316.605469 116.25 316.605469 187.4375 C 316.605469 258.625 258.625 316.605469 187.4375 316.605469 Z M 187.4375 316.605469 " fill-opacity="1" fill-rule="nonzero"/></g><path fill="#000000" d="M 224.753906 115.675781 L 150.121094 115.675781 C 142.082031 115.675781 135.769531 121.988281 135.769531 130.027344 C 135.769531 138.0625 142.082031 144.378906 150.121094 144.378906 L 224.753906 144.378906 C 232.789062 144.378906 239.105469 138.0625 239.105469 130.027344 C 239.105469 121.988281 232.789062 115.675781 224.753906 115.675781 Z M 224.753906 115.675781 " fill-opacity="1" fill-rule="nonzero"/><path fill="#000000" d="M 224.753906 173.082031 L 150.121094 173.082031 C 142.082031 173.082031 135.769531 179.398438 135.769531 187.4375 C 135.769531 195.472656 142.082031 201.789062 150.121094 201.789062 L 224.753906 201.789062 C 232.789062 201.789062 239.105469 195.472656 239.105469 187.4375 C 239.105469 179.398438 232.789062 173.082031 224.753906 173.082031 Z M 224.753906 173.082031 " fill-opacity="1" fill-rule="nonzero"/><path fill="#000000" d="M 224.753906 230.492188 L 150.121094 230.492188 C 142.082031 230.492188 135.769531 236.808594 135.769531 244.84375 C 135.769531 252.882812 142.082031 259.199219 150.121094 259.199219 L 224.753906 259.199219 C 232.789062 259.199219 239.105469 252.882812 239.105469 244.84375 C 239.105469 236.808594 232.789062 230.492188 224.753906 230.492188 Z M 224.753906 230.492188 " fill-opacity="1" fill-rule="nonzero"/></svg>