<?xml version="1.0" encoding="UTF-8"?><svg xmlns="http://www.w3.org/2000/svg" xmlns:xlink="http://www.w3.org/1999/xlink" height="438.7" preserveAspectRatio="xMidYMid meet" version="1.0" viewBox="0.0 0.0 500.0 438.7" width="500.0" zoomAndPan="magnify"><g id="change1_1"><path d="M498.331,172.845v21.197c0,10.488-9.639,19.021-21.486,19.021h-4.93c-4.069,0-8.033-1.017-11.465-2.939 l-1.488-0.834v228.411H41.037v-228.41l-1.489,0.833c-3.432,1.922-7.396,2.938-11.463,2.938h-4.932 c-11.847-0.001-21.485-8.534-21.485-19.021v-21.197l35.763-71.681h-8.438V89.792h12.044v-77.42H28.993V1h442.012v11.372h-12.043 v77.42h12.043v11.372h-8.437L498.331,172.845z" fill="#F4F1EC"/></g><g id="change2_1"><path d="M499.331,173.278v20.764c0,11.057-10.068,20.021-22.486,20.021h-4.93c-4.394,0-8.49-1.127-11.953-3.067 c-6.126-3.432-10.259-9.419-10.513-16.284c-0.008-0.223-0.019-0.445-0.019-0.67V193.1h-49.863v0.942c0,0.23,0.011,0.459,0.02,0.687 c-0.408,10.738-10.305,19.334-22.466,19.334h-4.93c-12.167-0.001-22.069-8.605-22.467-19.351c-0.008-0.223-0.019-0.445-0.019-0.67 V193.1h-49.863v0.942c0,0.236,0.011,0.47,0.02,0.704c-0.418,10.73-10.313,19.317-22.465,19.317h-4.932 c-12.16-0.001-22.058-8.596-22.465-19.334c-0.009-0.229-0.02-0.457-0.02-0.687V193.1h-49.862v0.942c0,0.231,0.011,0.459,0.02,0.688 c-0.408,10.738-10.308,19.333-22.466,19.333h-4.93c-12.154-0.001-22.048-8.586-22.466-19.317c-0.009-0.234-0.02-0.468-0.02-0.704 V193.1h-49.862v0.942c0,0.225,0.011,0.447,0.019,0.67c-0.398,10.746-10.299,19.351-22.466,19.351h-4.93 c-12.153-0.001-22.048-8.586-22.466-19.317c-0.009-0.234-0.02-0.468-0.02-0.704V193.1H6.162l33.5-95.75h420.675l1.684,4.813h2.163 l34.813,69.776h-12.563l0.468,1.338H499.331z M58.481,235.443H317.51v135.603H58.481V235.443z M303.672,242.299l-96.948,120.214 c-0.464,0.575-0.374,1.416,0.201,1.88c0.248,0.199,0.544,0.296,0.838,0.296c0.39,0,0.778-0.17,1.042-0.497l96.948-120.214 c0.464-0.575,0.374-1.416-0.201-1.88C304.974,241.633,304.133,241.726,303.672,242.299z M213.9,242.299l-96.948,120.214 c-0.464,0.575-0.374,1.416,0.201,1.88c0.248,0.199,0.544,0.296,0.838,0.296c0.39,0,0.778-0.17,1.042-0.497l96.948-120.214 c0.464-0.575,0.374-1.416-0.201-1.88C215.202,241.633,214.364,241.726,213.9,242.299z M95.552,364.393 c0.248,0.199,0.544,0.296,0.838,0.296c0.391,0,0.779-0.17,1.042-0.497l96.948-120.214c0.464-0.575,0.374-1.416-0.201-1.88 c-0.578-0.465-1.418-0.372-1.88,0.201L95.351,362.513C94.887,363.088,94.977,363.929,95.552,364.393z" fill="#F2AE2F"/></g><g id="change3_1"><path d="M312.974,403.937c0,0.683-0.07,1.35-0.195,1.997L303.75,428.1h-209l-31.436-22.167 c-0.19-0.789-0.301-1.608-0.301-2.455c0-5.784,4.688-10.472,10.471-10.472c0.447,0,0.884,0.037,1.316,0.091 c-0.091-0.555-0.151-1.122-0.151-1.704c0-5.782,4.69-10.472,10.472-10.472c4.253,0,7.907,2.539,9.546,6.182 c1.887-2.758,5.055-4.569,8.648-4.569c5.785,0,10.472,4.689,10.472,10.472c0,0.288-0.02,0.57-0.041,0.851 c1.268-0.546,2.664-0.851,4.132-0.851c5.013,0,9.195,3.523,10.223,8.227c1.912-2.053,4.63-3.345,7.657-3.345 c0.447,0,0.884,0.036,1.317,0.091c-0.092-0.557-0.151-1.122-0.151-1.704c0-5.782,4.689-10.472,10.472-10.472 c4.253,0,7.905,2.539,9.546,6.182c1.886-2.758,5.054-4.569,8.648-4.569c5.784,0,10.472,4.689,10.472,10.472 c0,0.288-0.02,0.57-0.043,0.851c1.268-0.546,2.664-0.851,4.132-0.851c2.826,0,5.386,1.125,7.269,2.944 c1.725-3.414,5.256-5.76,9.342-5.76c0.447,0,0.884,0.037,1.317,0.091c-0.092-0.555-0.151-1.122-0.151-1.702 c0-5.784,4.689-10.472,10.472-10.472c4.253,0,7.905,2.539,9.546,6.182c1.886-2.759,5.054-4.571,8.648-4.571 c5.784,0,10.472,4.69,10.472,10.472c0,0.288-0.02,0.57-0.043,0.851c1.268-0.545,2.664-0.851,4.132-0.851 c3.159,0,5.984,1.405,7.903,3.616c1.813-3.121,5.183-5.225,9.052-5.225c0.447,0,0.884,0.037,1.316,0.092 c-0.091-0.557-0.151-1.124-0.151-1.704c0-5.784,4.69-10.472,10.472-10.472c4.253,0,7.907,2.539,9.546,6.182 c1.887-2.758,5.055-4.569,8.648-4.569c5.785,0,10.472,4.688,10.472,10.47c0,0.288-0.02,0.57-0.041,0.851 c1.268-0.545,2.664-0.851,4.132-0.851C308.288,393.463,312.976,398.153,312.974,403.937z" fill="#259C66"/></g><g id="change4_1"><path d="M317.508,408.84v29.856H58.48V408.84c0-1.605,1.301-2.906,2.904-2.906h1.93h249.464h1.826 C316.209,405.934,317.508,407.235,317.508,408.84z M428.961,318.155h-81.72c-1.933,0-3.5,1.567-3.5,3.5V424.62 c0,1.933,1.567,3.5,3.5,3.5h81.72c1.933,0,3.5-1.567,3.5-3.5V321.655C432.461,319.723,430.894,318.155,428.961,318.155z M432.461,290.384v17.025c0,1.933-1.567,3.5-3.5,3.5h-81.72c-1.933,0-3.5-1.567-3.5-3.5v-17.025 c0-24.46,19.899-44.359,44.359-44.359S432.461,265.924,432.461,290.384z M362.169,297.781l26.973-33.446 c0.464-0.575,0.374-1.416-0.201-1.88c-0.578-0.465-1.418-0.372-1.88,0.201l-26.973,33.446c-0.464,0.575-0.374,1.416,0.201,1.88 c0.248,0.199,0.544,0.296,0.838,0.296C361.518,298.278,361.905,298.107,362.169,297.781z M410.669,262.455 c-0.578-0.465-1.418-0.372-1.88,0.201l-26.973,33.446c-0.464,0.575-0.374,1.416,0.201,1.88c0.248,0.199,0.544,0.296,0.838,0.296 c0.391,0,0.779-0.171,1.042-0.497l26.973-33.446C411.334,263.76,411.244,262.919,410.669,262.455z M222.603,214.063h4.93 c12.159,0,22.059-8.596,22.466-19.334c-0.009-0.229-0.02-0.457-0.02-0.687v-20.764h-2.396v-1.338h2.395l0.004-69.776H207.15 l-6.965,69.776h2.399v1.338h-2.466v20.764c0,0.231,0.011,0.459,0.02,0.688C200.546,205.468,210.443,214.062,222.603,214.063z M349.724,194.712c-0.008-0.223-0.019-0.445-0.019-0.67v-20.764h-3.288v-1.338h3.154l-13.921-69.776h-42.835l6.959,69.776h1.642 v1.338h-1.575v20.764c0,0.236,0.011,0.47,0.02,0.704c0.418,10.73,10.313,19.316,22.464,19.317h4.932 C339.425,214.063,349.326,205.458,349.724,194.712z M449.43,194.042v-20.764h-3.18v-1.338h2.912l-27.845-69.776h-42.834 l20.883,69.776h1.885v1.338h-1.683v20.764c0,0.23,0.011,0.459,0.02,0.687c0.408,10.738,10.307,19.333,22.466,19.334h4.93 c12.167,0,22.068-8.605,22.466-19.351C449.441,194.489,449.43,194.267,449.43,194.042z M50.797,171.94l27.85-69.776H35.814 L1.002,171.94H4v1.338H0.669c0,0-0.001,0-0.001,0v20.764c0,11.057,10.068,20.02,22.485,20.021h4.932 c4.393,0,8.489-1.126,11.952-3.065c6.117-3.426,10.246-9.4,10.513-16.251c-0.009-0.234-0.02-0.468-0.02-0.704v-20.764H49v-1.338 H50.797z M122.879,214.063h4.93c12.153,0,22.048-8.586,22.466-19.317c-0.009-0.234-0.02-0.468-0.02-0.704v-20.764h-2.421v-1.338 h2.555l13.927-69.776h-42.834l-20.888,69.776h2.241v1.338h-2.441v20.764c0,0.225,0.011,0.447,0.019,0.67 C100.81,205.458,110.712,214.062,122.879,214.063z" fill="#F2A7C8"/></g><g id="change5_1"><path d="M388.1,235.443c-29.501,0-53.417,23.916-53.417,53.418V438.7h106.836V288.861 C441.519,259.359,417.603,235.443,388.1,235.443z M428.961,424.62h-81.72V321.655h81.72V424.62z M428.961,307.409h-81.72v-17.025 c0-22.567,18.294-40.86,40.86-40.86c22.567,0,40.86,18.293,40.86,40.86V307.409z M355.579,363.912v-23.401 c0-0.738,0.598-1.337,1.337-1.337s1.337,0.599,1.337,1.337v23.401c0,0.739-0.598,1.337-1.337,1.337S355.579,364.65,355.579,363.912z M35.814,102.164h-7.821V88.792h12.044h419.925h12.043v13.372h-7.82h-42.868h-42.834h-42.832h-42.835h-42.833H207.15h-42.834 h-42.834H78.647H35.814z M40.037,13.372H27.993V0h444.012v13.372h-12.043H40.037z M500.001,172.609 c-0.001,0.37-0.3,0.669-0.67,0.669H449.43h-49.863h-49.862h-49.863H249.98h-49.862h-49.863h-49.862H50.53H0.669c0,0-0.001,0-0.001,0 C0.299,173.277,0,172.979,0,172.609c0-0.37,0.299-0.669,0.669-0.669h0.333h49.795h49.796h49.795h49.796h49.794h49.796h49.796h49.794 h49.796h49.835h0.335C499.702,171.94,500.001,172.239,500.001,172.609z M174.659,61.024c0-3.201-1.46-5.111-8.987-7.976 c-8.144-3.089-10.953-6.01-10.953-11.683c0-5.561,4.774-10.11,13.368-10.11c4.606,0,8.145,0.955,11.683,2.696l-1.966,4.549 c-2.528-1.46-6.123-2.64-9.83-2.64c-4.942,0-7.976,2.135-7.976,5.224c0,2.921,1.236,4.493,8.538,7.189 c8.762,3.258,11.626,6.797,11.626,12.132c0,7.303-5.954,11.515-14.267,11.515c-5.448,0-10.11-1.572-13.143-3.987l2.696-4.494 c2.696,2.247,5.954,3.819,10.447,3.819C171.289,67.258,174.659,64.843,174.659,61.024z M202.29,71.246v-34.6h-12.076v-4.718h29.488 v4.718h-12.076v34.6H202.29z M228.91,51.532c0,11.233,6.908,20.389,18.535,20.389c11.626,0,18.591-9.155,18.591-20.389 c0-11.178-7.021-20.276-18.591-20.276C235.819,31.255,228.91,40.017,228.91,51.532z M260.588,51.532 c0,8.987-4.493,15.783-13.143,15.783c-8.257,0-13.087-7.639-13.087-15.783c0-8.874,4.83-15.671,13.087-15.671 C255.701,35.861,260.588,43.499,260.588,51.532z M307.427,41.927c0-6.122-4.887-10.447-14.436-10.447 c-4.156,0-7.526,0.168-11.514,0.562v39.205h5.336V53.891h0.842c5.842,0,9.38,2.021,11.852,7.357l4.887,10.672l4.999-2.358 l-4.269-9.212c-2.303-4.942-4.156-6.74-7.189-8.088C304.057,50.633,307.427,47.375,307.427,41.927z M292.991,49.397h-6.178V36.198 c1.629-0.112,3.65-0.225,6.178-0.225c5.842,0,9.1,2.752,9.1,6.459C302.091,46.926,298.384,49.397,292.991,49.397z M328.991,36.535 v11.964h15.728v4.493h-15.728v13.649h18.255v4.605h-23.591V31.929h23.591v4.605H328.991z" fill="#4833DA"/></g></svg>