<?xml version="1.0" encoding="UTF-8"?>
<svg version="1.1" xmlns="http://www.w3.org/2000/svg" width="308" height="308">
<path d="M0 0 C4.29209067 2.5791921 7.29426832 6.27845601 10.25 10.25 C25.5617929 30.43988621 52.2895154 42.46564584 77 46 C82.07342168 46.52985457 87.15420759 46.94539374 92.24731445 47.22998047 C98.27084408 47.61336683 102.42256321 48.0792478 106.60174656 52.81509972 C108.22037995 55.34436405 108.37871185 56.67417799 108.38768005 59.64981079 C108.39758469 60.58009598 108.40748932 61.51038116 108.41769409 62.46885681 C108.41319244 63.48283035 108.4086908 64.49680389 108.40405273 65.54150391 C108.41091599 66.61532822 108.41777924 67.68915253 108.42485046 68.79551697 C108.44318948 72.35599917 108.43926616 75.91604303 108.43359375 79.4765625 C108.43815651 81.96121361 108.44346237 84.44586346 108.44947815 86.93051147 C108.45957305 92.81991361 108.45343648 98.70916053 108.44222456 104.59855592 C108.43307341 110.57541247 108.45759148 116.55196991 108.48396206 122.52877235 C108.50245 127.66968066 108.50200531 132.81046367 108.49632454 137.95139694 C108.49617244 140.3982658 108.50212374 142.84514377 108.51461601 145.29198074 C108.64811102 175.76378631 101.62179419 203.67109769 81 227 C80.29101562 227.81726563 79.58203125 228.63453125 78.8515625 229.4765625 C59.22929884 251.71512799 27.19108152 278.94626624 -4 281 C-9.77065609 280.22735985 -14.72181676 278.32682214 -20 276 C-20.88671387 275.61827637 -21.77342773 275.23655273 -22.68701172 274.84326172 C-59.71600083 258.68046372 -91.2802578 231.23447041 -107.3125 193.625 C-113.67952629 176.33635419 -114.61365563 160.04034792 -114.56640625 141.734375 C-114.57165221 139.2409848 -114.57793222 136.74759658 -114.58518982 134.25421143 C-114.59552508 129.06700187 -114.59112413 123.88006792 -114.57641602 118.69287109 C-114.56257198 113.37586129 -114.56858043 108.05957906 -114.59692383 102.74267578 C-114.63095592 96.28330045 -114.64059801 89.82439108 -114.6301403 83.36493683 C-114.62932122 80.91372988 -114.6361763 78.46250771 -114.65091133 76.01134491 C-114.6683189 72.59653847 -114.65385107 69.18329785 -114.63110352 65.76855469 C-114.64279572 64.7617717 -114.65448792 63.75498871 -114.66653442 62.71769714 C-114.60565759 58.22896922 -114.49538165 54.99496982 -111.64805603 51.38946533 C-108.22222139 48.29817383 -105.7185544 47.88654072 -101.2734375 47.60546875 C-68.5543364 45.30821189 -38.20202518 35.86659613 -16.0078125 10.37109375 C-14.73133102 8.86365356 -13.45524428 7.35587897 -12.1796875 5.84765625 C-8.16775087 1.1089195 -6.38463498 -0.84325368 0 0 Z M-45 88 C-45.66644531 88.48855469 -46.33289063 88.97710937 -47.01953125 89.48046875 C-59.46618368 99.42306093 -67.63234048 115.72993002 -69.625 131.375 C-69.76433602 132.91543714 -69.88961356 134.45721811 -70 136 C-70.05414063 136.66386719 -70.10828125 137.32773438 -70.1640625 138.01171875 C-70.93268322 156.35380415 -63.73526479 172.83570552 -51.87109375 186.44140625 C-43.12103525 195.69236256 -33.01041772 201.0428997 -21 205 C-20.27683594 205.2475 -19.55367187 205.495 -18.80859375 205.75 C-1.90202429 210.51427789 16.55532405 206.08255223 31.640625 198.11328125 C47.05101225 188.41907253 58.16621925 173.22119978 62.4765625 155.5234375 C66.29789624 137.10118676 62.75594886 118.8221669 52.90625 102.81640625 C43.01553466 88.20327969 27.6122336 78.08528099 10.3359375 74.4375 C-9.99259525 71.77146292 -28.43644807 75.66153156 -45 88 Z " fill="#00DF82" transform="translate(157,4)"/>
<path d="M0 0 C2.96983797 1.58391358 4.53563544 2.81458696 5.77734375 5.984375 C6.45578396 9.23640247 6.71482009 11.87146266 4.88790894 14.7557373 C4.35497223 15.32554321 3.82203552 15.89534912 3.27294922 16.48242188 C2.63113708 17.17489014 1.98932495 17.8673584 1.32806396 18.58081055 C0.55980286 19.37914307 -0.20845825 20.17747559 -1 21 C-1.90312927 21.94721924 -2.80625854 22.89443848 -3.73675537 23.87036133 C-10.09343002 30.50067313 -16.55366436 37.03153485 -23.01309013 43.56153107 C-26.2819042 46.86625688 -29.54116831 50.17932437 -32.77978516 53.51367188 C-35.93216481 56.75888485 -39.10610759 59.98146244 -42.29648209 63.1893158 C-43.5027154 64.40961337 -44.70117712 65.63764604 -45.89141464 66.87355042 C-56.34755345 77.71148285 -56.34755345 77.71148285 -62.13647461 77.83056641 C-66.53769504 76.88440831 -68.07318648 76.40881847 -71 73 C-73.16125638 69.47756412 -75.00017406 65.83675966 -76.8125 62.125 C-77.31458984 61.14402344 -77.81667969 60.16304687 -78.33398438 59.15234375 C-78.80771484 58.19714844 -79.28144531 57.24195313 -79.76953125 56.2578125 C-80.19854736 55.3930127 -80.62756348 54.52821289 -81.06958008 53.63720703 C-82.14532149 50.5880969 -82.2343099 48.21198656 -82 45 C-80.35866035 42.01175949 -78.07633164 39.53816582 -75 38 C-70.54182791 37.48559553 -68.5538531 37.63786528 -64.75 40.125 C-62.03408085 42.96437002 -60.50872858 45.39581506 -59 49 C-55.95221322 47.81481402 -55.95221322 47.81481402 -54.1484375 45.21875 C-52.68017316 42.38210325 -50.76219228 40.49750272 -48.5 38.25 C-47.7059375 37.45078125 -46.911875 36.6515625 -46.09375 35.828125 C-44 34 -44 34 -42 34 C-41.67 33.01 -41.34 32.02 -41 31 C-40.34 31 -39.68 31 -39 31 C-39 30.34 -39 29.68 -39 29 C-38.34 29 -37.68 29 -37 29 C-36.505 27.515 -36.505 27.515 -36 26 C-35.34 26 -34.68 26 -34 26 C-34 25.34 -34 24.68 -34 24 C-33.34 24 -32.68 24 -32 24 C-31.505 22.515 -31.505 22.515 -31 21 C-30.34 21 -29.68 21 -29 21 C-28.7525 20.4225 -28.505 19.845 -28.25 19.25 C-26.81700012 16.67060021 -25.21575324 14.93878408 -23 13 C-22.34 13 -21.68 13 -21 13 C-21 12.34 -21 11.68 -21 11 C-20.34 11 -19.68 11 -19 11 C-18.67 10.01 -18.34 9.02 -18 8 C-17.34 8 -16.68 8 -16 8 C-16 7.34 -16 6.68 -16 6 C-15.34 6 -14.68 6 -14 6 C-13.79375 5.401875 -13.5875 4.80375 -13.375 4.1875 C-10.19707001 -0.86829772 -5.4172208 -1.72890026 0 0 Z " fill="#5D5D5D" transform="translate(187,106)"/>
<path d="M0 0 C0.33 0 0.66 0 1 0 C1 36.96 1 73.92 1 112 C0.67 112 0.34 112 0 112 C0 75.04 0 38.08 0 0 Z " fill="#00DF82" transform="translate(266,59)"/>
<path d="M0 0 C0.33 0 0.66 0 1 0 C1 36.96 1 73.92 1 112 C0.67 112 0.34 112 0 112 C0 75.04 0 38.08 0 0 Z " fill="#00DF82" transform="translate(41,59)"/>
<path d="M0 0 C0 3 0 3 -1.8359375 5.17651367 C-2.67382812 5.99869385 -3.51171875 6.82087402 -4.375 7.66796875 C-5.27734375 8.56064453 -6.1796875 9.45332031 -7.109375 10.37304688 C-8.0727573 11.31136157 -9.03630108 12.2495105 -10 13.1875 C-10.96422346 14.13667769 -11.92777392 15.08653956 -12.890625 16.03710938 C-15.25386746 18.36490319 -17.62381482 20.68543133 -20 23 C-20.66 22.67 -21.32 22.34 -22 22 C-14.74 14.74 -7.48 7.48 0 0 Z " fill="#5C5C5C" transform="translate(163,150)"/>
<path d="M0 0 C5.94 0 11.88 0 18 0 C18 0.33 18 0.66 18 1 C12.06 1 6.12 1 0 1 C0 0.67 0 0.34 0 0 Z " fill="#00DF82" transform="translate(145,209)"/>
<path d="M0 0 C0 3 0 3 -1.3125 4.60546875 C-1.869375 5.12753906 -2.42625 5.64960938 -3 6.1875 C-3.556875 6.71730469 -4.11375 7.24710938 -4.6875 7.79296875 C-5.120625 8.19128906 -5.55375 8.58960938 -6 9 C-6.66 8.67 -7.32 8.34 -8 8 C-5.36 5.36 -2.72 2.72 0 0 Z " fill="#5B5B5B" transform="translate(190,123)"/>
<path d="M0 0 C4.95 0 9.9 0 15 0 C15 0.33 15 0.66 15 1 C10.05 1 5.1 1 0 1 C0 0.67 0 0.34 0 0 Z " fill="#00DF82" transform="translate(242,50)"/>
<path d="M0 0 C4.95 0 9.9 0 15 0 C15 0.33 15 0.66 15 1 C10.05 1 5.1 1 0 1 C0 0.67 0 0.34 0 0 Z " fill="#00DF82" transform="translate(51,50)"/>
<path d="M0 0 C0 3 0 3 -1.5 4.6875 C-1.995 5.120625 -2.49 5.55375 -3 6 C-3.66 5.67 -4.32 5.34 -5 5 C-3.35 3.35 -1.7 1.7 0 0 Z " fill="#5C5C5C" transform="translate(172,141)"/>
<path d="M0 0 C0.33 0 0.66 0 1 0 C1 2.97 1 5.94 1 9 C0.67 9 0.34 9 0 9 C0 6.03 0 3.06 0 0 Z " fill="#00E082" transform="translate(88,140)"/>
<path d="M0 0 C0.33 0 0.66 0 1 0 C1 2.64 1 5.28 1 8 C0.67 8 0.34 8 0 8 C0 5.36 0 2.72 0 0 Z " fill="#00DF82" transform="translate(218,149)"/>
<path d="M0 0 C2.64 0 5.28 0 8 0 C8 0.33 8 0.66 8 1 C5.36 1 2.72 1 0 1 C0 0.67 0 0.34 0 0 Z " fill="#00DF82" transform="translate(156,79)"/>
<path d="M0 0 C2.64 0 5.28 0 8 0 C8 0.33 8 0.66 8 1 C5.36 1 2.72 1 0 1 C0 0.67 0 0.34 0 0 Z " fill="#00DF82" transform="translate(144,79)"/>
<path d="M0 0 C0.33 0 0.66 0 1 0 C1 2.31 1 4.62 1 7 C0.67 7 0.34 7 0 7 C0 4.69 0 2.38 0 0 Z " fill="#00DF82" transform="translate(89,150)"/>
<path d="M0 0 C0.33 0 0.66 0 1 0 C1 2.31 1 4.62 1 7 C0.67 7 0.34 7 0 7 C0 4.69 0 2.38 0 0 Z " fill="#00DF82" transform="translate(219,141)"/>
<path d="M0 0 C2.31 0 4.62 0 7 0 C7 0.33 7 0.66 7 1 C4.69 1 2.38 1 0 1 C0 0.67 0 0.34 0 0 Z " fill="#5D5D5D" transform="translate(112,142)"/>
<path d="M0 0 C0.33 0 0.66 0 1 0 C1 2.31 1 4.62 1 7 C0.67 7 0.34 7 0 7 C0 4.69 0 2.38 0 0 Z " fill="#00DF82" transform="translate(218,132)"/>
<path d="M0 0 C0.33 0 0.66 0 1 0 C1 2.31 1 4.62 1 7 C0.67 7 0.34 7 0 7 C0 4.69 0 2.38 0 0 Z " fill="#00E082" transform="translate(89,132)"/>
<path d="M0 0 C2.31 0 4.62 0 7 0 C7 0.33 7 0.66 7 1 C4.69 1 2.38 1 0 1 C0 0.67 0 0.34 0 0 Z " fill="#00DF82" transform="translate(234,49)"/>
<path d="M0 0 C2.31 0 4.62 0 7 0 C7 0.33 7 0.66 7 1 C4.69 1 2.38 1 0 1 C0 0.67 0 0.34 0 0 Z " fill="#00DF82" transform="translate(67,49)"/>
<path d="M0 0 C1.98 0 3.96 0 6 0 C6 0.33 6 0.66 6 1 C4.02 1 2.04 1 0 1 C0 0.67 0 0.34 0 0 Z " fill="#00DE82" transform="translate(164,80)"/>
<path d="M0 0 C1.98 0 3.96 0 6 0 C6 0.33 6 0.66 6 1 C4.02 1 2.04 1 0 1 C0 0.67 0 0.34 0 0 Z " fill="#00DF82" transform="translate(151,2)"/>
<path d="M0 0 C0.33 0 0.66 0 1 0 C1 1.65 1 3.3 1 5 C0.67 5 0.34 5 0 5 C0 3.35 0 1.7 0 0 Z " fill="#00DF81" transform="translate(43,178)"/>
<path d="M0 0 C0.33 0 0.66 0 1 0 C1 1.65 1 3.3 1 5 C0.67 5 0.34 5 0 5 C0 3.35 0 1.7 0 0 Z " fill="#00DF81" transform="translate(264,178)"/>
<path d="M0 0 C0 0.99 0 1.98 0 3 C-0.66 2.67 -1.32 2.34 -2 2 C-1.34 1.34 -0.68 0.68 0 0 Z " fill="#5B5B5B" transform="translate(137,176)"/>
<path d="M0 0 C0 0.99 0 1.98 0 3 C-0.66 2.67 -1.32 2.34 -2 2 C-1.34 1.34 -0.68 0.68 0 0 Z " fill="#5A5A5A" transform="translate(140,173)"/>
<path d="M0 0 C0 0.99 0 1.98 0 3 C-0.66 2.67 -1.32 2.34 -2 2 C-1.34 1.34 -0.68 0.68 0 0 Z " fill="#5F5F5F" transform="translate(166,147)"/>
<path d="M0 0 C0 0.99 0 1.98 0 3 C-0.66 2.67 -1.32 2.34 -2 2 C-1.34 1.34 -0.68 0.68 0 0 Z " fill="#5A5A5A" transform="translate(175,138)"/>
<path d="M0 0 C0 0.99 0 1.98 0 3 C-0.66 2.67 -1.32 2.34 -2 2 C-1.34 1.34 -0.68 0.68 0 0 Z " fill="#5A5A5A" transform="translate(178,135)"/>
<path d="M0 0 C0 0.99 0 1.98 0 3 C-0.66 2.67 -1.32 2.34 -2 2 C-1.34 1.34 -0.68 0.68 0 0 Z " fill="#5A5A5A" transform="translate(181,132)"/>
<path d="M0 0 C0.33 0 0.66 0 1 0 C1 1.65 1 3.3 1 5 C0.67 5 0.34 5 0 5 C0 3.35 0 1.7 0 0 Z " fill="#5D5D5D" transform="translate(194,113)"/>
<path d="M0 0 C1.65 0 3.3 0 5 0 C5 0.33 5 0.66 5 1 C3.35 1 1.7 1 0 1 C0 0.67 0 0.34 0 0 Z " fill="#00DF82" transform="translate(139,80)"/>
<path d="M0 0 C4 1 4 1 4 1 Z " fill="#00DF81" transform="translate(159,284)"/>
<path d="M0 0 C4 1 4 1 4 1 Z " fill="#00DE82" transform="translate(145,284)"/>
<path d="M0 0 C0.66 0.33 1.32 0.66 2 1 C1.01 1 0.02 1 -1 1 C-0.67 0.67 -0.34 0.34 0 0 Z " fill="#00DF81" transform="translate(227,243)"/>
<path d="M0 0 C4 1 4 1 4 1 Z " fill="#00DF82" transform="translate(164,208)"/>
<path d="M0 0 C4 1 4 1 4 1 Z " fill="#00DF82" transform="translate(140,208)"/>
<path d="M0 0 C4 1 4 1 4 1 Z " fill="#00DF82" transform="translate(132,206)"/>
<path d="M0 0 C4 1 4 1 4 1 Z " fill="#5D5D5D" transform="translate(121,184)"/>
<path d="M0 0 C1 4 1 4 1 4 Z " fill="#00DF82" transform="translate(265,173)"/>
<path d="M0 0 C1 4 1 4 1 4 Z " fill="#00DF81" transform="translate(42,173)"/>
<path d="M0 0 C1 4 1 4 1 4 Z " fill="#5D5D5D" transform="translate(103,152)"/>
<path d="M0 0 C4 1 4 1 4 1 Z " fill="#00E083" transform="translate(229,48)"/>
<path d="M0 0 C3 1 3 1 3 1 Z " fill="#00DF82" transform="translate(156,285)"/>
<path d="M0 0 C3 1 3 1 3 1 Z " fill="#00DF82" transform="translate(149,285)"/>
<path d="M0 0 C3 1 3 1 3 1 Z " fill="#00DF82" transform="translate(169,207)"/>
<path d="M0 0 C3 1 3 1 3 1 Z " fill="#00DF82" transform="translate(136,207)"/>
<path d="M0 0 C3 1 3 1 3 1 Z " fill="#00DF83" transform="translate(173,206)"/>
<path d="" fill="#00DF82" transform="translate(0,0)"/>
<path d="" fill="#00DF82" transform="translate(0,0)"/>
<path d="" fill="#00DF82" transform="translate(0,0)"/>
<path d="" fill="#00DF82" transform="translate(0,0)"/>
<path d="" fill="#00DF82" transform="translate(0,0)"/>
<path d="M0 0 C3 1 3 1 3 1 Z " fill="#5D5D5D" transform="translate(126,184)"/>
<path d="" fill="#00DF82" transform="translate(0,0)"/>
<path d="M0 0 C0.33 0.66 0.66 1.32 1 2 C0.34 1.67 -0.32 1.34 -1 1 C-0.67 0.67 -0.34 0.34 0 0 Z " fill="#5B5B5B" transform="translate(134,179)"/>
<path d="" fill="#00DF82" transform="translate(0,0)"/>
<path d="" fill="#00DF82" transform="translate(0,0)"/>
<path d="" fill="#00DF83" transform="translate(0,0)"/>
<path d="" fill="#00DE83" transform="translate(0,0)"/>
<path d="" fill="#00DE82" transform="translate(0,0)"/>
<path d="" fill="#00DF82" transform="translate(0,0)"/>
<path d="" fill="#00DF82" transform="translate(0,0)"/>
<path d="" fill="#00DF82" transform="translate(0,0)"/>
<path d="" fill="#00DF82" transform="translate(0,0)"/>
<path d="" fill="#00DF82" transform="translate(0,0)"/>
<path d="" fill="#00DF81" transform="translate(0,0)"/>
<path d="" fill="#00DF81" transform="translate(0,0)"/>
<path d="M0 0 C3 1 3 1 3 1 Z " fill="#5D5D5D" transform="translate(181,103)"/>
<path d="M0 0 C3 1 3 1 3 1 Z " fill="#00DF82" transform="translate(176,83)"/>
<path d="M0 0 C3 1 3 1 3 1 Z " fill="#00DF82" transform="translate(129,83)"/>
<path d="M0 0 C3 1 3 1 3 1 Z " fill="#00DF82" transform="translate(170,81)"/>
<path d="M0 0 C3 1 3 1 3 1 Z " fill="#00DF82" transform="translate(135,81)"/>
<path d="M0 0 C3 1 3 1 3 1 Z " fill="#00DF82" transform="translate(75,48)"/>
<path d="M0 0 C3 1 3 1 3 1 Z " fill="#00DF82" transform="translate(225,47)"/>
<path d="M0 0 C3 1 3 1 3 1 Z " fill="#00DF82" transform="translate(80,47)"/>
<path d="M0 0 C3 1 3 1 3 1 Z " fill="#00DF82" transform="translate(221,46)"/>
<path d="M0 0 C3 1 3 1 3 1 Z " fill="#00DF83" transform="translate(84,46)"/>
<path d="M0 0 C3 1 3 1 3 1 Z " fill="#00DF81" transform="translate(214,44)"/>
<path d="M0 0 C3 1 3 1 3 1 Z " fill="#00DF82" transform="translate(91,44)"/>
<path d="M0 0 C3 1 3 1 3 1 Z " fill="#00DF82" transform="translate(211,43)"/>
<path d="M0 0 C3 1 3 1 3 1 Z " fill="#00E082" transform="translate(94,43)"/>
<path d="M0 0 C2 1 2 1 2 1 Z " fill="#00DF81" transform="translate(163,283)"/>
<path d="M0 0 C2 1 2 1 2 1 Z " fill="#00DF82" transform="translate(143,283)"/>
<path d="M0 0 C2 1 2 1 2 1 Z " fill="#00E082" transform="translate(166,282)"/>
<path d="M0 0 C2 1 2 1 2 1 Z " fill="#00DF82" transform="translate(140,282)"/>
<path d="M0 0 C2 1 2 1 2 1 Z " fill="#00DF82" transform="translate(169,281)"/>
<path d="M0 0 C2 1 2 1 2 1 Z " fill="#00E083" transform="translate(137,281)"/>
<path d="M0 0 C2 1 2 1 2 1 Z " fill="#00E184" transform="translate(171,280)"/>
<path d="M0 0 C2 1 2 1 2 1 Z " fill="#00DE83" transform="translate(135,280)"/>
<path d="M0 0 C2 1 2 1 2 1 Z " fill="#00DF82" transform="translate(174,279)"/>
<path d="M0 0 C2 1 2 1 2 1 Z " fill="#00DF82" transform="translate(132,279)"/>
<path d="M0 0 C2 1 2 1 2 1 Z " fill="#00E082" transform="translate(176,278)"/>
<path d="M0 0 C2 1 2 1 2 1 Z " fill="#00E082" transform="translate(130,278)"/>
<path d="M0 0 C2 1 2 1 2 1 Z " fill="#00DE82" transform="translate(178,277)"/>
<path d="M0 0 C2 1 2 1 2 1 Z " fill="#00E081" transform="translate(180,276)"/>
<path d="M0 0 C2 1 2 1 2 1 Z " fill="#00E181" transform="translate(126,276)"/>
<path d="M0 0 C2 1 2 1 2 1 Z " fill="#00E182" transform="translate(186,273)"/>
<path d="M0 0 C2 1 2 1 2 1 Z " fill="#00DF82" transform="translate(120,273)"/>
<path d="M0 0 C2 1 2 1 2 1 Z " fill="#00DF81" transform="translate(188,272)"/>
<path d="M0 0 C2 1 2 1 2 1 Z " fill="#00E082" transform="translate(118,272)"/>
<path d="M0 0 C2 1 2 1 2 1 Z " fill="#00DF82" transform="translate(190,271)"/>
<path d="M0 0 C2 1 2 1 2 1 Z " fill="#00DE82" transform="translate(116,271)"/>
<path d="M0 0 C2 1 2 1 2 1 Z " fill="#00E082" transform="translate(192,270)"/>
<path d="M0 0 C2 1 2 1 2 1 Z " fill="#00E184" transform="translate(195,268)"/>
<path d="M0 0 C2 1 2 1 2 1 Z " fill="#00DF82" transform="translate(111,268)"/>
<path d="M0 0 C2 1 2 1 2 1 Z " fill="#00E082" transform="translate(207,260)"/>
<path d="M0 0 C2 1 2 1 2 1 Z " fill="#00E082" transform="translate(99,260)"/>
<path d="M0 0 C2 1 2 1 2 1 Z " fill="#00DE83" transform="translate(211,257)"/>
<path d="M0 0 C2 1 2 1 2 1 Z " fill="#00DE83" transform="translate(95,257)"/>
<path d="M0 0 C2 1 2 1 2 1 Z " fill="#00E083" transform="translate(216,253)"/>
<path d="M0 0 C2 1 2 1 2 1 Z " fill="#00DF81" transform="translate(90,253)"/>
<path d="" fill="#00DF81" transform="translate(0,0)"/>
<path d="" fill="#00E081" transform="translate(0,0)"/>
<path d="" fill="#00DE83" transform="translate(0,0)"/>
<path d="" fill="#00DE83" transform="translate(0,0)"/>
<path d="" fill="#00E082" transform="translate(0,0)"/>
<path d="" fill="#00DF84" transform="translate(0,0)"/>
<path d="" fill="#00DE81" transform="translate(0,0)"/>
<path d="" fill="#00DE82" transform="translate(0,0)"/>
<path d="" fill="#00DF82" transform="translate(0,0)"/>
<path d="" fill="#00E082" transform="translate(0,0)"/>
<path d="" fill="#00DF82" transform="translate(0,0)"/>
<path d="" fill="#00DE81" transform="translate(0,0)"/>
<path d="" fill="#00DF82" transform="translate(0,0)"/>
<path d="" fill="#00DF82" transform="translate(0,0)"/>
<path d="" fill="#00DF83" transform="translate(0,0)"/>
<path d="" fill="#00E083" transform="translate(0,0)"/>
<path d="" fill="#00DE82" transform="translate(0,0)"/>
<path d="" fill="#00E083" transform="translate(0,0)"/>
<path d="" fill="#00DF83" transform="translate(0,0)"/>
<path d="" fill="#00DF83" transform="translate(0,0)"/>
<path d="M0 0 C2 1 2 1 2 1 Z " fill="#00DF82" transform="translate(176,205)"/>
<path d="M0 0 C2 1 2 1 2 1 Z " fill="#00DF81" transform="translate(130,205)"/>
<path d="" fill="#00DF82" transform="translate(0,0)"/>
<path d="M0 0 C2 1 2 1 2 1 Z " fill="#00DF82" transform="translate(179,204)"/>
<path d="M0 0 C2 1 2 1 2 1 Z " fill="#00DF82" transform="translate(127,204)"/>
<path d="" fill="#00DF83" transform="translate(0,0)"/>
<path d="M0 0 C2 1 2 1 2 1 Z " fill="#00DF82" transform="translate(181,203)"/>
<path d="M0 0 C2 1 2 1 2 1 Z " fill="#00DF82" transform="translate(125,203)"/>
<path d="" fill="#00DF82" transform="translate(0,0)"/>
<path d="M0 0 C2 1 2 1 2 1 Z " fill="#00E082" transform="translate(183,202)"/>
<path d="M0 0 C2 1 2 1 2 1 Z " fill="#00DF83" transform="translate(123,202)"/>
<path d="" fill="#00DF82" transform="translate(0,0)"/>
<path d="M0 0 C2 1 2 1 2 1 Z " fill="#00E082" transform="translate(185,201)"/>
<path d="M0 0 C2 1 2 1 2 1 Z " fill="#00DF82" transform="translate(121,201)"/>
<path d="M0 0 C2 1 2 1 2 1 Z " fill="#00E183" transform="translate(187,200)"/>
<path d="M0 0 C2 1 2 1 2 1 Z " fill="#00E081" transform="translate(190,198)"/>
<path d="M0 0 C2 1 2 1 2 1 Z " fill="#00E084" transform="translate(116,198)"/>
<path d="" fill="#00DF83" transform="translate(0,0)"/>
<path d="" fill="#00E082" transform="translate(0,0)"/>
<path d="M0 0 C2 1 2 1 2 1 Z " fill="#00DF81" transform="translate(194,195)"/>
<path d="M0 0 C2 1 2 1 2 1 Z " fill="#00E082" transform="translate(112,195)"/>
<path d="" fill="#00DF83" transform="translate(0,0)"/>
<path d="" fill="#00E081" transform="translate(0,0)"/>
<path d="" fill="#00DF83" transform="translate(0,0)"/>
<path d="" fill="#00DF81" transform="translate(0,0)"/>
<path d="" fill="#00DE82" transform="translate(0,0)"/>
<path d="" fill="#00DE83" transform="translate(0,0)"/>
<path d="M0 0 C2 1 2 1 2 1 Z " fill="#5E5E5E" transform="translate(119,183)"/>
<path d="" fill="#00DF82" transform="translate(0,0)"/>
<path d="" fill="#00DF82" transform="translate(0,0)"/>
<path d="" fill="#5D5D5D" transform="translate(0,0)"/>
<path d="" fill="#5D5D5D" transform="translate(0,0)"/>
<path d="" fill="#00E084" transform="translate(0,0)"/>
<path d="" fill="#5D5D5D" transform="translate(0,0)"/>
<path d="" fill="#00E182" transform="translate(0,0)"/>
<path d="" fill="#5D5D5D" transform="translate(0,0)"/>
<path d="" fill="#5D5D5D" transform="translate(0,0)"/>
<path d="" fill="#00E082" transform="translate(0,0)"/>
<path d="" fill="#00E082" transform="translate(0,0)"/>
<path d="" fill="#5D5D5D" transform="translate(0,0)"/>
<path d="" fill="#5D5D5D" transform="translate(0,0)"/>
<path d="" fill="#5D5D5D" transform="translate(0,0)"/>
<path d="" fill="#5D5D5D" transform="translate(0,0)"/>
<path d="" fill="#5D5D5D" transform="translate(0,0)"/>
<path d="" fill="#5D5D5D" transform="translate(0,0)"/>
<path d="" fill="#5D5D5D" transform="translate(0,0)"/>
<path d="" fill="#5D5D5D" transform="translate(0,0)"/>
<path d="" fill="#5D5D5D" transform="translate(0,0)"/>
<path d="" fill="#5C5C5C" transform="translate(0,0)"/>
<path d="" fill="#00DF83" transform="translate(0,0)"/>
<path d="" fill="#5E5E5E" transform="translate(0,0)"/>
<path d="" fill="#00DF83" transform="translate(0,0)"/>
<path d="" fill="#00DF82" transform="translate(0,0)"/>
<path d="" fill="#00E083" transform="translate(0,0)"/>
<path d="" fill="#00DF82" transform="translate(0,0)"/>
<path d="" fill="#00E082" transform="translate(0,0)"/>
<path d="" fill="#00DF83" transform="translate(0,0)"/>
<path d="" fill="#00DF81" transform="translate(0,0)"/>
<path d="" fill="#5D5D5D" transform="translate(0,0)"/>
<path d="" fill="#00DF82" transform="translate(0,0)"/>
<path d="" fill="#00DE82" transform="translate(0,0)"/>
<path d="M0 0 C2 1 2 1 2 1 Z " fill="#5C5C5C" transform="translate(187,105)"/>
<path d="" fill="#00DD81" transform="translate(0,0)"/>
<path d="M0 0 C2 1 2 1 2 1 Z " fill="#5D5D5D" transform="translate(185,104)"/>
<path d="M0 0 C2 1 2 1 2 1 Z " fill="#5D5D5D" transform="translate(178,104)"/>
<path d="M0 0 C2 1 2 1 2 1 Z " fill="#00DF83" transform="translate(193,92)"/>
<path d="M0 0 C2 1 2 1 2 1 Z " fill="#00DF81" transform="translate(113,92)"/>
<path d="M0 0 C2 1 2 1 2 1 Z " fill="#00DE80" transform="translate(189,89)"/>
<path d="M0 0 C2 1 2 1 2 1 Z " fill="#00E07D" transform="translate(117,89)"/>
<path d="M0 0 C2 1 2 1 2 1 Z " fill="#00DF82" transform="translate(187,88)"/>
<path d="M0 0 C2 1 2 1 2 1 Z " fill="#00DF82" transform="translate(119,88)"/>
<path d="M0 0 C2 1 2 1 2 1 Z " fill="#00DF82" transform="translate(123,86)"/>
<path d="M0 0 C2 1 2 1 2 1 Z " fill="#00E082" transform="translate(179,84)"/>
<path d="M0 0 C2 1 2 1 2 1 Z " fill="#00DF82" transform="translate(127,84)"/>
<path d="M0 0 C2 1 2 1 2 1 Z " fill="#00DF82" transform="translate(174,82)"/>
<path d="M0 0 C2 1 2 1 2 1 Z " fill="#00DF82" transform="translate(132,82)"/>
<path d="M0 0 C2 1 2 1 2 1 Z " fill="#00DF82" transform="translate(258,51)"/>
<path d="M0 0 C2 1 2 1 2 1 Z " fill="#00DF83" transform="translate(48,51)"/>
<path d="M0 0 C2 1 2 1 2 1 Z " fill="#00DF82" transform="translate(218,45)"/>
<path d="M0 0 C2 1 2 1 2 1 Z " fill="#00DF82" transform="translate(88,45)"/>
<path d="M0 0 C2 1 2 1 2 1 Z " fill="#00DF83" transform="translate(209,42)"/>
<path d="M0 0 C2 1 2 1 2 1 Z " fill="#00DF82" transform="translate(97,42)"/>
<path d="M0 0 C2 1 2 1 2 1 Z " fill="#00DF83" transform="translate(206,41)"/>
<path d="M0 0 C2 1 2 1 2 1 Z " fill="#00DF83" transform="translate(100,41)"/>
<path d="M0 0 C2 1 2 1 2 1 Z " fill="#00DF83" transform="translate(204,40)"/>
<path d="M0 0 C2 1 2 1 2 1 Z " fill="#00DF82" transform="translate(102,40)"/>
<path d="M0 0 C2 1 2 1 2 1 Z " fill="#00DF82" transform="translate(199,38)"/>
<path d="M0 0 C2 1 2 1 2 1 Z " fill="#00DF83" transform="translate(107,38)"/>
<path d="M0 0 C2 1 2 1 2 1 Z " fill="#00DF83" transform="translate(197,37)"/>
<path d="M0 0 C2 1 2 1 2 1 Z " fill="#00DF82" transform="translate(109,37)"/>
<path d="M0 0 C2 1 2 1 2 1 Z " fill="#00E082" transform="translate(195,36)"/>
<path d="M0 0 C2 1 2 1 2 1 Z " fill="#00E182" transform="translate(111,36)"/>
<path d="M0 0 C2 1 2 1 2 1 Z " fill="#00DD80" transform="translate(188,32)"/>
<path d="M0 0 C2 1 2 1 2 1 Z " fill="#00DF81" transform="translate(118,32)"/>
<path d="M0 0 C2 1 2 1 2 1 Z " fill="#00E182" transform="translate(185,30)"/>
<path d="M0 0 C2 1 2 1 2 1 Z " fill="#00DF82" transform="translate(121,30)"/>
<path d="M0 0 C2 1 2 1 2 1 Z " fill="#00DF83" transform="translate(176,23)"/>
<path d="" fill="#00DF82" transform="translate(0,0)"/>
<path d="" fill="#00DF83" transform="translate(0,0)"/>
<path d="" fill="#00DF83" transform="translate(0,0)"/>
<path d="" fill="#00E083" transform="translate(0,0)"/>
<path d="M0 0 C2 1 2 1 2 1 Z " fill="#00DF83" transform="translate(157,3)"/>
<path d="M0 0 C2 1 2 1 2 1 Z " fill="#00E082" transform="translate(149,3)"/>
<path d="" fill="#00E082" transform="translate(0,0)"/>
<path d="" fill="#00DF83" transform="translate(0,0)"/>
<path d="" fill="#00DF83" transform="translate(0,0)"/>
<path d="" fill="#00DF82" transform="translate(0,0)"/>
<path d="" fill="#00E082" transform="translate(0,0)"/>
<path d="" fill="#00E083" transform="translate(0,0)"/>
<path d="" fill="#00E082" transform="translate(0,0)"/>
<path d="" fill="#00DF83" transform="translate(0,0)"/>
<path d="" fill="#00E083" transform="translate(0,0)"/>
<path d="" fill="#00DF83" transform="translate(0,0)"/>
<path d="" fill="#00DF82" transform="translate(0,0)"/>
<path d="" fill="#00E082" transform="translate(0,0)"/>
<path d="" fill="#00E081" transform="translate(0,0)"/>
<path d="" fill="#00E082" transform="translate(0,0)"/>
<path d="" fill="#00DF82" transform="translate(0,0)"/>
<path d="" fill="#00E082" transform="translate(0,0)"/>
<path d="" fill="#00DF83" transform="translate(0,0)"/>
<path d="" fill="#00DF83" transform="translate(0,0)"/>
<path d="" fill="#00DF83" transform="translate(0,0)"/>
<path d="" fill="#00E083" transform="translate(0,0)"/>
<path d="" fill="#00E083" transform="translate(0,0)"/>
<path d="" fill="#00E082" transform="translate(0,0)"/>
<path d="" fill="#00DF83" transform="translate(0,0)"/>
<path d="" fill="#00E082" transform="translate(0,0)"/>
<path d="" fill="#00DF83" transform="translate(0,0)"/>
<path d="" fill="#00E082" transform="translate(0,0)"/>
<path d="" fill="#00E082" transform="translate(0,0)"/>
<path d="" fill="#00E083" transform="translate(0,0)"/>
<path d="" fill="#00DF83" transform="translate(0,0)"/>
<path d="" fill="#00E083" transform="translate(0,0)"/>
<path d="" fill="#00DF83" transform="translate(0,0)"/>
<path d="" fill="#00DF83" transform="translate(0,0)"/>
<path d="" fill="#00DF82" transform="translate(0,0)"/>
<path d="" fill="#00DF82" transform="translate(0,0)"/>
<path d="" fill="#00E082" transform="translate(0,0)"/>
<path d="" fill="#00DF83" transform="translate(0,0)"/>
<path d="" fill="#00E082" transform="translate(0,0)"/>
<path d="" fill="#00DF83" transform="translate(0,0)"/>
<path d="" fill="#00DF82" transform="translate(0,0)"/>
<path d="" fill="#00DF81" transform="translate(0,0)"/>
<path d="" fill="#00DF83" transform="translate(0,0)"/>
<path d="" fill="#00DF81" transform="translate(0,0)"/>
<path d="" fill="#00DF84" transform="translate(0,0)"/>
<path d="" fill="#00DF83" transform="translate(0,0)"/>
<path d="" fill="#00DE82" transform="translate(0,0)"/>
<path d="" fill="#00E383" transform="translate(0,0)"/>
<path d="" fill="#00DE81" transform="translate(0,0)"/>
<path d="" fill="#00E282" transform="translate(0,0)"/>
<path d="" fill="#00DF80" transform="translate(0,0)"/>
<path d="" fill="#00E082" transform="translate(0,0)"/>
<path d="" fill="#00DD82" transform="translate(0,0)"/>
<path d="" fill="#00DB86" transform="translate(0,0)"/>
<path d="" fill="#00DF81" transform="translate(0,0)"/>
<path d="" fill="#00DD83" transform="translate(0,0)"/>
<path d="" fill="#00E281" transform="translate(0,0)"/>
<path d="" fill="#00E182" transform="translate(0,0)"/>
<path d="" fill="#00E082" transform="translate(0,0)"/>
<path d="" fill="#00E081" transform="translate(0,0)"/>
<path d="" fill="#00DF83" transform="translate(0,0)"/>
<path d="" fill="#00DF81" transform="translate(0,0)"/>
<path d="" fill="#00DF83" transform="translate(0,0)"/>
<path d="" fill="#00DF83" transform="translate(0,0)"/>
<path d="" fill="#00DF83" transform="translate(0,0)"/>
<path d="" fill="#00E083" transform="translate(0,0)"/>
<path d="" fill="#00DF82" transform="translate(0,0)"/>
<path d="" fill="#00DF83" transform="translate(0,0)"/>
<path d="" fill="#00DF82" transform="translate(0,0)"/>
<path d="" fill="#00DF82" transform="translate(0,0)"/>
<path d="" fill="#00DF83" transform="translate(0,0)"/>
<path d="" fill="#00DF82" transform="translate(0,0)"/>
<path d="" fill="#00E083" transform="translate(0,0)"/>
<path d="" fill="#00E084" transform="translate(0,0)"/>
<path d="" fill="#00E083" transform="translate(0,0)"/>
<path d="" fill="#00DF83" transform="translate(0,0)"/>
<path d="" fill="#00E082" transform="translate(0,0)"/>
<path d="" fill="#00DF83" transform="translate(0,0)"/>
<path d="" fill="#00E083" transform="translate(0,0)"/>
<path d="" fill="#00DF83" transform="translate(0,0)"/>
<path d="" fill="#00E082" transform="translate(0,0)"/>
<path d="" fill="#00DF82" transform="translate(0,0)"/>
<path d="" fill="#00DF82" transform="translate(0,0)"/>
<path d="" fill="#00E082" transform="translate(0,0)"/>
<path d="" fill="#00DF83" transform="translate(0,0)"/>
<path d="" fill="#00E083" transform="translate(0,0)"/>
<path d="" fill="#00DF83" transform="translate(0,0)"/>
<path d="" fill="#00E082" transform="translate(0,0)"/>
<path d="" fill="#00E082" transform="translate(0,0)"/>
<path d="" fill="#00DF82" transform="translate(0,0)"/>
<path d="" fill="#00DF83" transform="translate(0,0)"/>
<path d="" fill="#00DF82" transform="translate(0,0)"/>
<path d="" fill="#00DF81" transform="translate(0,0)"/>
<path d="" fill="#00E081" transform="translate(0,0)"/>
<path d="" fill="#00E081" transform="translate(0,0)"/>
<path d="" fill="#00E081" transform="translate(0,0)"/>
<path d="" fill="#00DF82" transform="translate(0,0)"/>
<path d="" fill="#00E082" transform="translate(0,0)"/>
<path d="" fill="#00DF83" transform="translate(0,0)"/>
<path d="" fill="#00DF83" transform="translate(0,0)"/>
<path d="" fill="#00E082" transform="translate(0,0)"/>
<path d="" fill="#00E083" transform="translate(0,0)"/>
<path d="" fill="#00E082" transform="translate(0,0)"/>
<path d="" fill="#00DF83" transform="translate(0,0)"/>
<path d="" fill="#00E082" transform="translate(0,0)"/>
<path d="" fill="#00DF82" transform="translate(0,0)"/>
<path d="" fill="#00E083" transform="translate(0,0)"/>
<path d="" fill="#00DF83" transform="translate(0,0)"/>
<path d="" fill="#00DF81" transform="translate(0,0)"/>
<path d="" fill="#00DF84" transform="translate(0,0)"/>
<path d="" fill="#00DE83" transform="translate(0,0)"/>
<path d="" fill="#00DF83" transform="translate(0,0)"/>
<path d="" fill="#5D5D5D" transform="translate(0,0)"/>
<path d="" fill="#00E082" transform="translate(0,0)"/>
<path d="" fill="#00DE82" transform="translate(0,0)"/>
<path d="" fill="#5C5C5C" transform="translate(0,0)"/>
<path d="" fill="#5E5E5E" transform="translate(0,0)"/>
<path d="" fill="#00DF82" transform="translate(0,0)"/>
<path d="" fill="#5B5B5B" transform="translate(0,0)"/>
<path d="" fill="#5E5E5E" transform="translate(0,0)"/>
<path d="" fill="#00DF83" transform="translate(0,0)"/>
<path d="" fill="#5D5D5D" transform="translate(0,0)"/>
<path d="" fill="#00E082" transform="translate(0,0)"/>
<path d="" fill="#5D5D5D" transform="translate(0,0)"/>
<path d="" fill="#00DF83" transform="translate(0,0)"/>
<path d="" fill="#00E082" transform="translate(0,0)"/>
<path d="" fill="#00DF82" transform="translate(0,0)"/>
<path d="" fill="#00E083" transform="translate(0,0)"/>
<path d="" fill="#00DF82" transform="translate(0,0)"/>
<path d="" fill="#00DF83" transform="translate(0,0)"/>
<path d="" fill="#5D5D5D" transform="translate(0,0)"/>
<path d="" fill="#5D5D5D" transform="translate(0,0)"/>
<path d="" fill="#5D5D5D" transform="translate(0,0)"/>
<path d="" fill="#5D5D5D" transform="translate(0,0)"/>
<path d="" fill="#5C5C5C" transform="translate(0,0)"/>
<path d="" fill="#5D5D5D" transform="translate(0,0)"/>
<path d="" fill="#5D5D5D" transform="translate(0,0)"/>
<path d="" fill="#5D5D5D" transform="translate(0,0)"/>
<path d="" fill="#5D5D5D" transform="translate(0,0)"/>
<path d="" fill="#5C5C5C" transform="translate(0,0)"/>
<path d="" fill="#5D5D5D" transform="translate(0,0)"/>
<path d="" fill="#5D5D5D" transform="translate(0,0)"/>
<path d="" fill="#5D5D5D" transform="translate(0,0)"/>
<path d="" fill="#5D5D5D" transform="translate(0,0)"/>
<path d="" fill="#5F5F5F" transform="translate(0,0)"/>
<path d="" fill="#5F5F5F" transform="translate(0,0)"/>
<path d="" fill="#5D5D5D" transform="translate(0,0)"/>
<path d="" fill="#5D5D5D" transform="translate(0,0)"/>
<path d="" fill="#5E5E5E" transform="translate(0,0)"/>
<path d="" fill="#5D5D5D" transform="translate(0,0)"/>
<path d="" fill="#5E5E5E" transform="translate(0,0)"/>
<path d="" fill="#5E5E5E" transform="translate(0,0)"/>
<path d="" fill="#5E5E5E" transform="translate(0,0)"/>
<path d="" fill="#5E5E5E" transform="translate(0,0)"/>
<path d="" fill="#5E5E5E" transform="translate(0,0)"/>
<path d="" fill="#5E5E5E" transform="translate(0,0)"/>
<path d="" fill="#5E5E5E" transform="translate(0,0)"/>
<path d="" fill="#5E5E5E" transform="translate(0,0)"/>
<path d="" fill="#5E5E5E" transform="translate(0,0)"/>
<path d="" fill="#5E5E5E" transform="translate(0,0)"/>
<path d="" fill="#5E5E5E" transform="translate(0,0)"/>
<path d="" fill="#5E5E5E" transform="translate(0,0)"/>
<path d="" fill="#5E5E5E" transform="translate(0,0)"/>
<path d="" fill="#5E5E5E" transform="translate(0,0)"/>
<path d="" fill="#5E5E5E" transform="translate(0,0)"/>
<path d="" fill="#5E5E5E" transform="translate(0,0)"/>
<path d="" fill="#5E5E5E" transform="translate(0,0)"/>
<path d="" fill="#5E5E5E" transform="translate(0,0)"/>
<path d="" fill="#5E5E5E" transform="translate(0,0)"/>
<path d="" fill="#5B5B5B" transform="translate(0,0)"/>
<path d="" fill="#5E5E5E" transform="translate(0,0)"/>
<path d="" fill="#5C5C5C" transform="translate(0,0)"/>
<path d="" fill="#5E5E5E" transform="translate(0,0)"/>
<path d="" fill="#5D5D5D" transform="translate(0,0)"/>
<path d="" fill="#5D5D5D" transform="translate(0,0)"/>
<path d="" fill="#5E5E5E" transform="translate(0,0)"/>
<path d="" fill="#5D5D5D" transform="translate(0,0)"/>
<path d="" fill="#5E5E5E" transform="translate(0,0)"/>
<path d="" fill="#5D5D5D" transform="translate(0,0)"/>
<path d="" fill="#5E5E5E" transform="translate(0,0)"/>
<path d="" fill="#5D5D5D" transform="translate(0,0)"/>
<path d="" fill="#5E5E5E" transform="translate(0,0)"/>
<path d="" fill="#00DF83" transform="translate(0,0)"/>
<path d="" fill="#5F5F5F" transform="translate(0,0)"/>
<path d="" fill="#00E082" transform="translate(0,0)"/>
<path d="" fill="#5E5E5E" transform="translate(0,0)"/>
<path d="" fill="#00E083" transform="translate(0,0)"/>
<path d="" fill="#5E5E5E" transform="translate(0,0)"/>
<path d="" fill="#5D5D5D" transform="translate(0,0)"/>
<path d="" fill="#00DF82" transform="translate(0,0)"/>
<path d="" fill="#5E5E5E" transform="translate(0,0)"/>
<path d="" fill="#5D5D5D" transform="translate(0,0)"/>
<path d="" fill="#5E5E5E" transform="translate(0,0)"/>
<path d="" fill="#5D5D5D" transform="translate(0,0)"/>
<path d="" fill="#00DE83" transform="translate(0,0)"/>
<path d="" fill="#5D5D5D" transform="translate(0,0)"/>
<path d="" fill="#5E5E5E" transform="translate(0,0)"/>
<path d="" fill="#00DF81" transform="translate(0,0)"/>
<path d="" fill="#00E082" transform="translate(0,0)"/>
<path d="" fill="#5D5D5D" transform="translate(0,0)"/>
<path d="" fill="#00DF84" transform="translate(0,0)"/>
<path d="" fill="#00DF84" transform="translate(0,0)"/>
<path d="" fill="#00DF83" transform="translate(0,0)"/>
<path d="" fill="#00DF83" transform="translate(0,0)"/>
<path d="" fill="#00DF82" transform="translate(0,0)"/>
<path d="" fill="#00E082" transform="translate(0,0)"/>
<path d="" fill="#00DF83" transform="translate(0,0)"/>
<path d="" fill="#00E083" transform="translate(0,0)"/>
<path d="" fill="#00E083" transform="translate(0,0)"/>
<path d="" fill="#00DF83" transform="translate(0,0)"/>
<path d="" fill="#00E083" transform="translate(0,0)"/>
<path d="" fill="#00DF83" transform="translate(0,0)"/>
<path d="" fill="#00E083" transform="translate(0,0)"/>
<path d="" fill="#00E083" transform="translate(0,0)"/>
<path d="" fill="#00E083" transform="translate(0,0)"/>
<path d="" fill="#00DF83" transform="translate(0,0)"/>
<path d="" fill="#00E083" transform="translate(0,0)"/>
<path d="" fill="#00DF83" transform="translate(0,0)"/>
<path d="" fill="#00E082" transform="translate(0,0)"/>
<path d="" fill="#00DF82" transform="translate(0,0)"/>
<path d="" fill="#00E082" transform="translate(0,0)"/>
<path d="" fill="#00E081" transform="translate(0,0)"/>
<path d="" fill="#00E082" transform="translate(0,0)"/>
<path d="" fill="#00E083" transform="translate(0,0)"/>
<path d="" fill="#00E083" transform="translate(0,0)"/>
<path d="" fill="#00E182" transform="translate(0,0)"/>
<path d="" fill="#00E083" transform="translate(0,0)"/>
<path d="" fill="#00E082" transform="translate(0,0)"/>
<path d="" fill="#00DF83" transform="translate(0,0)"/>
<path d="" fill="#00E083" transform="translate(0,0)"/>
<path d="" fill="#00DF82" transform="translate(0,0)"/>
<path d="" fill="#00DF83" transform="translate(0,0)"/>
<path d="" fill="#00E082" transform="translate(0,0)"/>
<path d="" fill="#00DF82" transform="translate(0,0)"/>
<path d="" fill="#00E082" transform="translate(0,0)"/>
<path d="" fill="#00E081" transform="translate(0,0)"/>
<path d="" fill="#00E483" transform="translate(0,0)"/>
<path d="" fill="#00E083" transform="translate(0,0)"/>
<path d="" fill="#00E083" transform="translate(0,0)"/>
<path d="" fill="#00DF83" transform="translate(0,0)"/>
<path d="" fill="#00E083" transform="translate(0,0)"/>
<path d="" fill="#00E082" transform="translate(0,0)"/>
<path d="" fill="#00E082" transform="translate(0,0)"/>
<path d="" fill="#00E082" transform="translate(0,0)"/>
<path d="" fill="#00E083" transform="translate(0,0)"/>
<path d="" fill="#00DF83" transform="translate(0,0)"/>
<path d="" fill="#00DF83" transform="translate(0,0)"/>
<path d="" fill="#00DE82" transform="translate(0,0)"/>
<path d="" fill="#00DF83" transform="translate(0,0)"/>
<path d="" fill="#00DF82" transform="translate(0,0)"/>
<path d="" fill="#00E082" transform="translate(0,0)"/>
<path d="" fill="#00DF83" transform="translate(0,0)"/>
<path d="" fill="#00DF82" transform="translate(0,0)"/>
<path d="" fill="#00E083" transform="translate(0,0)"/>
<path d="" fill="#00E182" transform="translate(0,0)"/>
<path d="" fill="#00DF83" transform="translate(0,0)"/>
<path d="" fill="#00DF83" transform="translate(0,0)"/>
<path d="" fill="#00E083" transform="translate(0,0)"/>
<path d="" fill="#00E082" transform="translate(0,0)"/>
<path d="" fill="#00DE82" transform="translate(0,0)"/>
<path d="" fill="#00DF82" transform="translate(0,0)"/>
<path d="" fill="#00DF82" transform="translate(0,0)"/>
<path d="" fill="#00E082" transform="translate(0,0)"/>
<path d="" fill="#00DF83" transform="translate(0,0)"/>
<path d="" fill="#00E082" transform="translate(0,0)"/>
<path d="" fill="#00E082" transform="translate(0,0)"/>
<path d="" fill="#00DF83" transform="translate(0,0)"/>
<path d="" fill="#00DF82" transform="translate(0,0)"/>
<path d="" fill="#00DF83" transform="translate(0,0)"/>
<path d="" fill="#00DF82" transform="translate(0,0)"/>
<path d="" fill="#00E082" transform="translate(0,0)"/>
<path d="" fill="#00E183" transform="translate(0,0)"/>
<path d="" fill="#00DF83" transform="translate(0,0)"/>
<path d="" fill="#00E183" transform="translate(0,0)"/>
<path d="" fill="#00DF83" transform="translate(0,0)"/>
<path d="" fill="#00DF82" transform="translate(0,0)"/>
<path d="" fill="#00DF82" transform="translate(0,0)"/>
<path d="" fill="#00DF83" transform="translate(0,0)"/>
<path d="" fill="#00DF82" transform="translate(0,0)"/>
<path d="" fill="#00DF82" transform="translate(0,0)"/>
<path d="" fill="#00E082" transform="translate(0,0)"/>
<path d="" fill="#00DF83" transform="translate(0,0)"/>
<path d="" fill="#00DF82" transform="translate(0,0)"/>
<path d="" fill="#00DF82" transform="translate(0,0)"/>
<path d="" fill="#00E083" transform="translate(0,0)"/>
<path d="" fill="#00E083" transform="translate(0,0)"/>
<path d="" fill="#00DF82" transform="translate(0,0)"/>
<path d="" fill="#00DF82" transform="translate(0,0)"/>
<path d="" fill="#00DF83" transform="translate(0,0)"/>
<path d="" fill="#00E082" transform="translate(0,0)"/>
</svg>
